<?xml version="1.0" encoding="UTF-8" standalone="no"?>
<!-- Created with Inkscape (http://www.inkscape.org/) -->

<svg
   xmlns:dc="http://purl.org/dc/elements/1.1/"
   xmlns:cc="http://creativecommons.org/ns#"
   xmlns:rdf="http://www.w3.org/1999/02/22-rdf-syntax-ns#"
   xmlns:svg="http://www.w3.org/2000/svg"
   xmlns="http://www.w3.org/2000/svg"
   xmlns:sodipodi="http://sodipodi.sourceforge.net/DTD/sodipodi-0.dtd"
   xmlns:inkscape="http://www.inkscape.org/namespaces/inkscape"
   width="107.24632mm"
   height="43.506439mm"
   viewBox="0 0 380.00668 154.15672"
   id="svg4744"
   version="1.1"
   inkscape:version="0.91 r13725"
   sodipodi:docname="logo-bubble.svg">
  <defs
     id="defs4746" />
  <sodipodi:namedview
     id="base"
     pagecolor="#ffffff"
     bordercolor="#666666"
     borderopacity="1.0"
     inkscape:pageopacity="0"
     inkscape:pageshadow="2"
     inkscape:zoom="1.4"
     inkscape:cx="190.38523"
     inkscape:cy="91.435221"
     inkscape:document-units="px"
     inkscape:current-layer="layer1"
     showgrid="false"
     fit-margin-top="0"
     fit-margin-left="0"
     fit-margin-right="0"
     fit-margin-bottom="0"
     inkscape:window-width="1600"
     inkscape:window-height="837"
     inkscape:window-x="-8"
     inkscape:window-y="-8"
     inkscape:window-maximized="1" />
  <metadata
     id="metadata4749">
    <rdf:RDF>
      <cc:Work
         rdf:about="">
        <dc:format>image/svg+xml</dc:format>
        <dc:type
           rdf:resource="http://purl.org/dc/dcmitype/StillImage" />
        <dc:title></dc:title>
      </cc:Work>
    </rdf:RDF>
  </metadata>
  <g
     inkscape:label="Layer 1"
     inkscape:groupmode="layer"
     id="layer1"
     transform="translate(-68.259804,26.99825)">
    <g
       id="layer1-0-4"
       inkscape:label="Layer 1"
       transform="translate(-113.18389,-423.67987)"
       style="fill:none;fill-opacity:1;stroke:#ffffff;stroke-width:2.10000062;stroke-miterlimit:4;stroke-dasharray:none;stroke-opacity:1">
      <path
         style="opacity:1;fill:none;fill-opacity:1;stroke:#ffffff;stroke-width:2.10000062;stroke-miterlimit:4;stroke-dasharray:none;stroke-opacity:1"
         d="m 341.16301,515.60701 c -0.1186,-1.42329 -0.21926,-1.73549 -1.03012,-3.195 -1.56074,-2.80926 -4.60956,-9.1754 -9.92742,-26.51514 l -2.92771,-8.12047 c -0.69828,-2.05185 -3.72567,-9.86868 -6.49703,-17.4558 -4.40943,-12.07161 -16.54347,-44.14775 -16.62455,-43.00886 -0.0548,0.7703 16.88578,47.19403 21.58037,59.40327 0.80785,2.101 1.24737,3.35979 2.19077,6.30899 0.66142,1.34461 4.23602,11.83719 4.23602,11.83719 1.31968,3.68771 2.76566,7.81019 3.23717,9.15257 0.47153,1.34238 1.69951,4.71368 2.72886,7.49179 l 1.87155,5.05109 -1.66896,0.6521 c -0.91793,0.35866 -2.49269,1.01441 -3.49947,1.45722 -1.00678,0.44281 -3.16258,1.28788 -4.79066,1.87791 -3.14896,1.14122 -6.35614,4.85971 -5.6896,6.59667 0.96702,2.52004 -3.50495,2.94042 -32.28958,3.03533 -12.55287,0.0414 -22.82343,0.28119 -22.82348,0.53288 -5e-5,0.2517 0.97713,0.45763 2.17152,0.45763 1.29236,0 2.01892,0.24705 1.7945,0.61017 -0.21568,0.34898 -3.03887,0.58414 -6.59535,0.54935 -4.05538,-0.0397 -5.68766,-0.23074 -4.69282,-0.54935 0.83899,-0.26869 2.53889,-0.5159 3.77756,-0.54935 1.23867,-0.0334 2.42183,-0.3354 2.62924,-0.67099 0.58747,-0.95056 -6.25969,-0.73855 -10.39726,0.32192 -4.46713,1.14494 -6.62682,2.64552 -6.88147,4.78131 -0.287,2.4071 1.03654,8.09883 2.21629,9.5309 3.27135,3.9711 27.19541,4.85982 122.1475,4.5374 40.1035,-0.13619 75.66123,-0.40954 79.01718,-0.60748 7.78692,-0.45927 30.54521,-3.15415 32.94924,-3.90161 1.00679,-0.31302 3.5893,-0.87688 5.73893,-1.25305 7.60443,-1.3306 10.17084,-2.72203 16.74264,-9.07711 3.3316,-3.22174 6.4285,-6.73301 6.88201,-7.80282 1.28909,-3.0409 0.5171,-5.30223 -2.32866,-6.82122 -3.3441,-1.78498 -7.01702,-1.69531 -10.34547,0.25258 -1.62975,0.95377 -2.18412,1.51586 -1.43516,1.45516 2.34767,-0.19027 5.99716,0.0445 5.67649,0.36515 -0.74711,0.7471 -7.43983,1.45896 -8.15291,0.86716 -0.40481,-0.33596 -1.52339,-0.59382 -2.48574,-0.57304 -10.37423,0.22411 -49.98591,-0.74852 -50.58046,-1.24196 -0.41314,-0.34287 -0.92254,-1.50962 -1.132,-2.59277 -0.20947,-1.08315 -0.82692,-2.81119 -1.37213,-3.84008 -0.93181,-1.75848 -0.9175,-2.03752 0.2387,-4.65129 1.38456,-3.13001 1.05782,-4.28691 -1.11737,-3.9564 -1.14732,0.17433 -1.93897,1.17516 -3.50925,4.4365 -1.11523,2.31626 -2.76269,5.72156 -3.66103,7.56732 -0.94475,1.94117 -2.10261,3.4428 -2.74651,3.56197 -1.4035,0.25976 -3.33666,-1.45021 -3.58154,-3.16806 -0.11,-0.77161 -0.6975,-1.3823 -1.43081,-1.48728 -1.16821,-0.16723 -1.80337,0.75289 -3.87074,5.60731 -0.1358,0.31887 1.97115,0.36951 5.03391,0.12101 3.24869,-0.26361 5.26746,-0.20336 5.26746,0.1572 0,0.3247 -2.20192,1.05275 -5.22901,1.08519 -4.82563,0.0517 -5.71287,-0.51508 -6.03496,-1.52989 -0.23966,-0.7551 -1.16354,-1.27402 -2.70796,-1.52099 -1.28931,-0.20617 -2.66371,-0.75983 -3.05422,-1.23036 -1.74397,-2.10137 -15.00883,-3.13021 -18.97395,-1.47165 -1.28301,0.53666 -3.95929,0.87283 -6.70365,0.84205 -3.73993,-0.042 -4.60328,-0.23431 -4.76241,-1.06112 -0.12552,-0.65214 0.68212,-1.50249 2.2799,-2.4005 1.36085,-0.76484 2.50859,-1.61463 2.55054,-1.88843 0.042,-0.2738 0.14492,-0.77239 0.22882,-1.10799 0.0839,-0.33559 0.18686,-1.41061 0.22881,-2.38893 0.0665,-1.55006 0.54697,-2.00102 3.7373,-3.50751 3.81035,-1.79926 4.30926,-2.66928 2.78152,-4.85044 -0.6713,-0.95842 -1.34436,-1.18746 -2.84311,-0.96748 -1.73443,0.25455 -1.90782,0.15381 -1.48569,-0.86315 0.26285,-0.63324 0.64987,-1.86523 0.86005,-2.73777 0.22361,-0.92826 1.54406,-3.10255 4.29082,-5.66676 1.73194,-1.61681 3.08806,-1.97519 4.54486,-3.0841 2.70239,-2.05705 5.17149,-4.40375 7.75953,-6.60293 1.15251,-0.97933 3.05309,-2.43529 4.22767,-3.2306 1.17458,-0.79531 9.57936,-5.88466 12.60351,-7.62088 1.75764,-1.00909 3.51529,-2.01819 5.27294,-3.02728 2.18843,-1.25642 4.75229,-2.27988 5.18921,-2.1235 0.43692,0.15639 0.64463,0.042 0.46158,-0.25417 -0.39176,-0.63387 2.79477,-1.99481 9.65904,-4.06044 5.31041,-1.59804 11.19778,-2.55108 16.34507,-2.72086 5.95762,-0.1965 11.98657,-0.27103 17.40999,1.53024 1.03961,0.34528 2.8326,1.3094 4.39279,2.23523 2.30028,1.365 4.30522,2.71057 4.62666,2.94918 0.59389,0.44088 1.18777,0.88175 1.78166,1.32262 0.2899,0.21521 -0.74079,-1.21549 -1.54129,-1.84144 -1.89921,-1.48507 -8.12891,-4.94734 -9.10184,-5.19261 -5.55425,-1.40021 -12.12187,-1.34084 -17.37036,-1.28581 -3.96538,0.0416 -7.48423,0.45079 -11.38473,0.90092 -4.50132,0.51947 -18.63032,6.27148 -21.88475,8.05426 -1.2729,0.6973 -2.5458,1.39459 -3.8187,2.09189 -4.07958,2.23479 -14.82999,9.86062 -18.64522,12.4338 -3.05693,2.06175 -6.11386,4.12351 -9.1708,6.18525 -3.67016,2.47535 -7.35906,7.82242 -9.61453,7.8348 -1.48944,0.008 -2.83161,0.39111 -3.28479,0.93715 -0.42145,0.50783 -1.07287,0.87596 -1.4476,0.81807 -0.37472,-0.0579 -1.91691,0.46825 -3.42708,1.16919 -3.10196,1.43975 -6.63271,1.74198 -6.98516,0.59792 l 0,0 c -0.12923,-0.41949 -0.4024,-1.52567 -0.60704,-2.45819 -0.24635,-1.12258 -1.05161,-2.01954 -2.38314,-2.65449 -2.96937,-1.416 -4.69512,-4.18548 -2.51007,-4.92349 1.27373,-0.43021 1.93412,0.49711 2.26127,-3.70518 0,0 -0.18989,-2.58364 0.77993,-2.35539 0.83712,0.19702 -0.42599,-1.79077 -0.58763,-2.43477 -0.50834,-2.02538 0.29292,-2.87533 2.71057,-2.87533 l 1.87198,0 -1.78586,-1.88136 c -0.98223,-1.03475 -2.34881,-3.00637 -3.03684,-4.38138 -1.4747,-2.94714 -3.39211,-4.34582 -6.67781,-4.87122 -3.62412,-0.57952 -8.59905,2.47395 -8.6571,5.31347 -0.0112,0.5462 -0.43555,1.33772 -0.94308,1.75893 -0.70188,0.58251 -0.75703,0.96556 -0.23037,1.60014 0.50502,0.6085 0.51059,1.05337 0.0206,1.64378 -0.49047,0.59098 -0.4769,1.32585 0.0503,2.72248 0.39714,1.05215 0.53626,2.09883 0.30915,2.32594 -0.22712,0.22711 -2.38964,-0.33483 -7.38585,5.82393 -4.11287,9.86361 -5.26482,17.20061 -5.26482,23.84464 l 0,4.13466 -1.83051,0 c -1.18644,0 -1.85735,-0.32204 -1.90679,-0.91526 m 77.56803,17.65896 c 0,-0.14799 0.42807,-0.26907 0.95127,-0.26907 0.52319,0 0.77879,0.27905 0.568,0.62012 -0.34829,0.56354 -1.51927,0.29297 -1.51927,-0.35105 z m -145.65306,-1.71589 c 0.13983,-0.12457 39.79048,-1.02844 44.9748,-0.56454 4.60381,0.41196 5.11281,0.12862 8.36146,0.4202 7.65201,0.32108 35.10993,0.81054 58.02644,-0.25788 11.25153,-0.52458 46.80377,-3.97238 48.45761,-3.39584 2.16006,0.753 -37.18533,4.98674 -55.43478,5.43695 -6.82673,0.16841 -40.12351,0.35088 -52.235,-0.40305 -16.89044,2.98426 -52.53228,0.10643 -52.15053,-1.23584 z m 22.56262,-0.19637 c 0.59367,-0.1547 1.41741,-0.14453 1.83051,0.0226 0.4131,0.16714 -0.0726,0.29372 -1.07941,0.28128 -1.00678,-0.0124 -1.34478,-0.14919 -0.7511,-0.30389 z m -3.36756,0.0187 c 0.4195,-0.16927 1.10594,-0.16927 1.52543,0 0.41949,0.16927 0.0763,0.30777 -0.76271,0.30777 -0.83899,0 -1.18221,-0.1385 -0.76272,-0.30777 z m 142.62754,-3.86709 c 0.20741,-0.33559 0.65168,-0.61017 0.98727,-0.61017 0.3356,0 0.44048,0.27458 0.23307,0.61017 -0.20741,0.3356 -0.65168,0.61018 -0.98728,0.61018 -0.33559,0 -0.44047,-0.27458 -0.23306,-0.61018 z m 2.59322,-0.4041 c 0.4195,-0.16927 1.10594,-0.16927 1.52543,0 0.41949,0.16927 0.021,1.24737 -0.81798,1.24737 -0.83899,0 -1.12694,-1.0781 -0.70745,-1.24737 z m 26.97943,-0.93374 -2.60582,-2.16253 6.33501,0.77856 c 2.13856,0.26283 7.60074,-0.33473 8.80999,-0.27681 1.36355,0.0653 -0.74482,1.97047 -3.20453,2.21826 -2.18136,0.21974 -6.82205,0.44693 -6.86742,0.50485 -0.0453,0.0579 -2.27054,0.16546 -2.46723,-1.06233 z m -7.50719,-0.6068 c -0.23838,-0.62119 -0.37093,-1.73266 -3.27306,-1.89787 -3.71551,-0.21152 -3.7942,-0.89353 0.66931,-0.84313 5.05101,0.0571 6.30601,1.0303 5.5804,2.20436 -0.56581,0.91551 -2.57535,1.58241 -2.97665,0.53664 z m -19.47224,-0.90015 c 0.4195,-0.16926 1.10594,-0.16926 1.52543,0 0.41949,0.16927 0.18682,1.13683 -0.65217,1.13683 -0.83898,0 -1.29275,-0.96756 -0.87326,-1.13683 z m 3.50849,-0.81623 c 0.20741,-0.3356 -0.051,-0.61018 -0.57416,-0.61018 -0.5232,0 -2.00142,-0.30395 -2.00142,-0.67545 0,-0.3715 1.20812,-2.388 1.73896,-2.1843 0.53084,0.20371 4.47423,0.75727 4.47423,0.75727 0.3822,0.0417 -1.76499,2.01921 -2.22492,2.57338 -0.85376,1.02872 -1.99192,1.07648 -1.41269,0.13928 z m -55.67813,-15.67489 c 0.58729,-0.15348 1.0678,-0.57925 1.0678,-0.94617 0,-0.36692 0.16478,-0.50234 0.36619,-0.30095 0.60939,0.6094 -0.36916,1.67246 -1.47,1.59694 -0.93021,-0.0638 -0.92666,-0.0982 0.036,-0.34982 z M 350.6689,490.33449 c -3.39846,-9.89672 -10.14191,-36.82066 -10.47023,-38.18532 -0.63296,-2.6309 -4.25317,-14.72796 -4.44305,-14.53808 -0.11066,0.11066 1.37316,6.6518 2.21534,9.66667 1.23731,4.42937 3.76784,14.12902 3.85769,14.7867 0.0115,0.0839 -0.39103,0.15254 -0.89442,0.15254 -0.50847,0 -0.91526,0.54237 -0.91526,1.22034 0,1.47502 0.53254,1.55976 1.4987,0.23846 0.59886,-0.81899 0.84818,-0.38876 1.50279,2.59322 0.43164,1.96632 5.97664,23.92721 6.78118,26.73341 m -26.05509,-15.97758 c 0.15845,-0.25785 -0.64188,-1.56714 -1.7785,-2.90951 -1.66877,-1.97084 -2.06835,-2.20538 -2.07568,-1.21836 -0.01,1.30123 3.36811,4.91887 3.85418,4.12787 z m 18.71308,-3.51968 c 0,-0.50339 -0.10792,-0.91526 -0.2398,-0.91526 -0.1319,0 -0.39785,0.41187 -0.59103,0.91526 -0.19317,0.50339 -0.0852,0.91525 0.2398,0.91525 0.32507,0 0.59103,-0.41186 0.59103,-0.91525 z m -0.29197,-2.59323 c -0.0484,-0.58729 -0.4144,-1.66755 -0.81329,-2.40057 -0.39889,-0.73303 -0.72525,-1.81761 -0.72525,-2.41018 0,-0.72224 -0.20226,-0.87514 -0.61357,-0.46384 -0.4113,0.4113 -0.29182,1.55781 0.36245,3.47798 0.96999,2.84676 1.958,3.83861 1.78966,1.79661 z m -6.04904,-33.25434 c -0.21551,-1.09068 -0.91068,-3.7678 -1.54481,-5.94916 -0.63414,-2.18137 -2.54127,-8.77122 -4.23808,-14.64412 -4.4154,-15.28241 -5.18912,-17.69496 -5.67481,-17.69496 -0.2378,0 -0.0596,1.16695 0.39595,2.59323 0.45558,1.42627 2.66889,9.18307 4.91847,17.23733 4.74269,16.98044 5.79632,20.44074 6.22399,20.44074 0.17113,0 0.1348,-0.89237 -0.0807,-1.98306 z m -34.08948,-14.06408 c -0.34989,-3.32802 -0.62073,-3.77791 -1.96405,-3.26243 -0.86674,0.3326 -0.86623,0.58057 0.005,2.66861 1.55342,3.72084 2.31146,3.95067 1.95855,0.59382 z m 3.21004,-4.62043 c 0,-0.29256 -0.68198,-2.00866 -1.51552,-3.81357 -0.94785,-2.05244 -2.60697,-6.40282 -2.35988,-5.25797 0.72903,3.37789 3.8754,10.99337 3.8754,9.07154 z m -3.26409,-8.70291 c -0.54737,-2.2863 -4.91481,-11.94853 -5.25572,-11.60763 -0.32322,0.32322 4.45674,12.1201 5.1735,12.78318 0.25692,0.23767 0.29392,-0.29132 0.0822,-1.17555 z m -4.66813,-11.43897 c 0,-0.3356 -0.27458,-0.77987 -0.61018,-0.98728 -0.33559,-0.20741 -0.61017,-0.10253 -0.61017,0.23307 0,0.33559 0.27458,0.77986 0.61017,0.98727 0.3356,0.20741 0.61018,0.10253 0.61018,-0.23306 z"
         id="path4217-5"
         inkscape:connector-curvature="0"
         sodipodi:nodetypes="cscsscscssscssssscsssssssssssssssssssssssssssssssssssssssscscssssssssssssssssssssssssssssssscsccssscscscsssssscsscscscsssscscssscccccccsssssssssssssscssscssssssssssssscssscscscccssscsssscsscsssssscsssscsssssssscssccssssscsssssss" />
    </g>
    <path
       inkscape:connector-curvature="0"
       style="font-style:normal;font-variant:normal;font-weight:normal;font-stretch:normal;font-size:70px;line-height:125%;font-family:Mistral;-inkscape-font-specification:'Mistral, Normal';text-align:start;letter-spacing:0px;word-spacing:0px;writing-mode:lr-tb;text-anchor:start;fill:none;fill-opacity:1;stroke:#6b6b6b;stroke-width:9.70000267;stroke-linecap:round;stroke-linejoin:round;stroke-miterlimit:5.9000001;stroke-dasharray:none;stroke-opacity:1"
       d="m 314.35409,35.68479 c -0.20508,0 -0.43294,0.0684 -0.68359,0.20508 -0.22786,0.13672 -0.5013,0.31901 -0.82031,0.54688 -0.93425,0.18229 -1.72136,0.52409 -2.35938,1.02539 -0.61523,0.47852 -1.09375,1.11654 -1.43554,1.91406 -0.0911,0.22787 -0.22787,0.75195 -0.41016,1.57227 -0.18229,0.82031 -0.39974,1.91406 -0.65039,3.28125 0.0684,0.22786 0.14909,0.51172 0.24023,0.85351 l -0.20508,1.36719 c -0.0684,0.25065 -0.056,0.54688 0.0352,0.88867 0.11393,0.31901 0.28386,0.65039 0.51172,0.99219 0,0.43294 0.0332,0.8431 0.10156,1.23047 0.0684,0.36458 0.15951,0.72917 0.27344,1.09375 -0.0911,0.182291 -0.16992,0.375001 -0.23828,0.580071 -0.0684,0.20508 -0.10156,0.42253 -0.10156,0.6504 0,0.61523 0.0664,1.14973 0.20312,1.60546 0.15951,0.45573 0.35417,0.8431 0.58203,1.16211 l -0.27343,1.33399 c -0.0456,0.0911 0,0.38737 0.13671,0.88867 0,0.63803 -0.0123,1.28646 -0.0351,1.94727 0,0.20508 0.0247,0.43294 0.0703,0.68359 0.0456,0.25065 0.13672,0.54688 0.27344,0.88867 0.11393,0.36459 0.19271,0.67318 0.23828,0.92383 0.0684,0.25065 0.10156,0.46615 0.10156,0.64844 0.18229,1.52669 0.35417,2.86068 0.51367,4 0.1823,1.13932 0.32943,2.08397 0.44336,2.83593 0.13672,0.38737 0.26302,0.72916 0.37696,1.0254 0.11393,0.29622 0.21549,0.52409 0.30664,0.68359 0,0.11393 0.0247,0.35417 0.0703,0.71875 0.0684,0.3418 0.15951,0.80794 0.27344,1.40039 0.27344,1.27604 0.56771,2.41539 0.88671,3.41799 0.31901,0.97982 0.68359,1.8125 1.09376,2.49609 0.22786,0.43295 0.42252,0.88868 0.58203,1.36719 0.1595,0.45573 0.28385,0.96745 0.375,1.53711 l 0.34375,0.44531 0.10156,0.3418 c -0.0684,0.18229 -0.36458,0.55729 -0.88867,1.12695 -0.52409,0.56966 -0.78711,1.04818 -0.78711,1.43555 0,0.56966 0.24023,1.12891 0.71875,1.67578 0.5013,0.54688 1.03581,0.82031 1.60547,0.82031 0.31901,0 0.66276,-0.0684 1.02734,-0.20508 0.38737,-0.11394 0.79753,-0.29622 1.23047,-0.54687 0.22786,-0.3418 0.51171,-0.74155 0.85351,-1.19727 0.5013,-0.25066 0.96744,-0.47851 1.4004,-0.68359 0.63801,-0.70638 1.19726,-1.3444 1.67578,-1.91406 0.47851,-0.56966 0.8763,-1.03581 1.19531,-1.40039 0.0684,-0.13672 0.11393,-0.36459 0.13672,-0.6836 -0.18229,-0.38737 -0.375,-0.82032 -0.58008,-1.29883 0.43294,-0.79753 0.85352,-1.56184 1.26367,-2.29101 0.41016,-0.75195 0.77474,-1.44597 1.09375,-2.08399 0.61524,-1.20771 1.33399,-2.74676 2.1543,-4.61525 0.82031,-1.86849 1.76693,-4.04362 2.83789,-6.52734 1.27604,-2.98503 2.20833,-5.35481 2.80078,-7.10938 0.61524,-1.75455 0.86784,-2.86067 0.75391,-3.31641 0.25065,-0.41016 0.45377,-0.76236 0.61328,-1.05859 0.1595,-0.31901 0.24023,-0.59244 0.24023,-0.82031 0.0684,-0.3418 0.11394,-0.68359 0.13672,-1.025391 0.0456,-0.3418 0.0912,-0.67318 0.13672,-0.99219 0.20508,-1.36718 0.36458,-2.42578 0.47852,-3.17773 0.11392,-0.75195 0.17187,-1.20768 0.17187,-1.36719 0,-0.43294 -0.0579,-0.76432 -0.17187,-0.99219 -0.11395,-0.22786 -0.29623,-0.3418 -0.54688,-0.3418 -0.45573,0.13671 -0.80794,0.25066 -1.05859,0.3418 l -2.1875,0.92383 c -0.38737,0.15951 -0.75196,0.53451 -1.09375,1.12695 -0.31901,0.59245 -0.59246,1.37956 -0.82032,2.35938 -0.0911,0.66081 -0.20703,1.30923 -0.34375,1.94726 -0.13671,0.615231 -0.26106,1.253261 -0.375,1.914071 0.0911,0.29622 0.1823,0.63802 0.27344,1.02539 l -0.17187,0.65039 c -0.18229,0.61523 -0.48893,1.49154 -0.92188,2.63086 -0.41015,1.13933 -0.92383,2.5293 -1.53906,4.16992 -0.75195,1.98242 -1.38997,3.57746 -1.91406,4.78515 -0.52409,1.20768 -0.93425,2.04037 -1.23047,2.4961 -0.29623,0.52409 -0.55729,0.99023 -0.78516,1.40039 -0.22786,0.41016 -0.39778,0.76432 -0.51172,1.06055 -0.45573,1.13932 -0.85546,2.05078 -1.19726,2.73437 -0.31901,0.66081 -0.58203,1.11656 -0.78711,1.36721 -0.29623,0.52409 -0.69401,1.03581 -1.19532,1.53711 -0.13672,0 -0.26107,-0.0684 -0.375,-0.20508 -0.11394,-0.13672 -0.19466,-0.32943 -0.24023,-0.58008 -0.1595,-0.75195 -0.31901,-1.48114 -0.47851,-2.18752 -0.15952,-0.70638 -0.3086,-1.36718 -0.44532,-1.98242 -0.18229,-0.22786 -0.31901,-0.44531 -0.41015,-0.65039 -0.0911,-0.22786 -0.13672,-0.42057 -0.13672,-0.58008 l -0.0332,-1.12891 c -0.15951,-1.5267 -0.33137,-2.87109 -0.51367,-4.0332 -0.1595,-1.16211 -0.29622,-2.12956 -0.41015,-2.9043 -0.11393,-0.88868 -0.2155,-1.65299 -0.30664,-2.29101 -0.0684,-0.66081 -0.11394,-1.24088 -0.13672,-1.74219 -0.13672,-0.54687 -0.22787,-0.85548 -0.27344,-0.92383 -0.0456,-0.0911 -0.0684,-0.2155 -0.0684,-0.375 0,-0.27344 0.0332,-0.69596 0.10156,-1.26562 0.0684,-0.56966 0.10352,-0.97982 0.10352,-1.23047 -0.13672,-0.56966 -0.25065,-1.11655 -0.3418,-1.64063 0.0911,-1.02539 0.15951,-1.719391 0.20508,-2.083981 0.0456,-0.36458 0.0684,-0.61523 0.0684,-0.75195 0,-0.22787 -0.0788,-0.59245 -0.23828,-1.09375 -0.15951,-0.5013 -0.24024,-0.86589 -0.24024,-1.09375 0,-0.20508 0.0807,-0.47853 0.24024,-0.82032 0.1595,-0.36459 0.26107,-0.6276 0.30664,-0.7871 0.0456,-1.34441 0.11393,-2.5625 0.20508,-3.65626 0.0911,-1.09374 0.18229,-2.06315 0.27343,-2.90624 0.0228,-0.29624 0.0104,-0.62565 -0.0351,-0.99024 -0.0228,-0.36458 -0.0892,-0.74154 -0.20313,-1.12891 -0.13672,-0.45573 -0.31901,-0.79753 -0.54687,-1.02539 -0.20508,-0.25066 -0.43295,-0.375 -0.6836,-0.375 z m -211.37306,3.21485 c -0.36458,0.22786 -0.73958,0.44531 -1.12695,0.65039 -0.29622,-0.0228 -0.61524,-0.0684 -0.95704,-0.13672 -0.3418,0 -0.75194,0.19271 -1.230464,0.58008 -0.47852,0.36458 -0.83268,0.55924 -1.06055,0.58203 -1.11653,0.20508 -1.94726,0.51172 -2.49414,0.92187 -0.54687,0.38737 -0.82031,0.87826 -0.82031,1.47071 0,0.29622 0.17187,0.6608 0.51367,1.09375 0.36458,0.41015 0.54687,0.75195 0.54687,1.02539 0,0.75195 -0.60482,2.0612 -1.8125,3.92969 -1.20769,1.845691 -3.01822,4.250651 -5.43359,7.212891 -2.36979,2.91666 -4.30859,5.18294 -5.8125,6.80078 -1.5039,1.61784 -2.59765,2.55208 -3.28125,2.80273 -0.22786,-0.36458 -0.339844,-0.69401 -0.339844,-0.99023 0,-0.22787 0.0332,-0.5013 0.101563,-0.82032 0.06836,-0.31901 0.147141,-0.67317 0.238281,-1.06054 0.13672,-0.43294 0.227867,-0.79753 0.273437,-1.09375 0.06836,-0.31901 0.126295,-0.58008 0.171875,-0.78516 0.54687,-2.57488 1.048177,-4.80794 1.503907,-6.69922 0.45573,-1.89127 0.865888,-3.46354 1.230468,-4.716791 0.02279,-0.11394 0.08073,-0.33138 0.171875,-0.65039 0.09115,-0.31901 0.2155,-0.72917 0.375,-1.23047 0.13672,-0.41016 0.227868,-0.76237 0.273438,-1.0586 0.04558,-0.31901 0.06836,-0.56966 0.06836,-0.75195 0,-0.41016 -0.227864,-1.04818 -0.683594,-1.91406 -0.45573,-0.86589 -0.830733,-1.27604 -1.126953,-1.23047 -0.27344,0.20508 -0.51367,0.38737 -0.71875,0.54687 -0.18229,0.15951 -0.341795,0.28386 -0.478515,0.375 -1.02539,0.31901 -1.868487,0.79753 -2.529297,1.43555 -0.6608,0.61524 -1.14974,1.38997 -1.46875,2.32422 -0.02278,0.13672 -0.0931,0.70638 -0.207031,1.70898 -0.11393,1.00261 -0.271483,2.415371 -0.476563,4.238281 -0.36458,3.09896 -0.683591,5.67382 -0.957031,7.72461 -0.25065,2.028 -0.468101,3.56706 -0.650391,4.61524 l 0.513672,1.94726 c -0.04557,0.31901 -0.126294,0.59245 -0.240234,0.82032 -0.11393,0.22786 -0.205078,0.42252 -0.273438,0.58203 -0.06836,0.22786 -0.182287,0.8763 -0.341797,1.94726 -0.15951,1.07097 -0.341805,2.5293 -0.546875,4.37502 -0.22787,1.80013 -0.397788,3.17969 -0.511718,4.13672 -0.09115,0.95703 -0.136719,1.5267 -0.136719,1.70899 0,0.18229 0.0332,0.47851 0.101562,0.88867 0.06836,0.38737 0.101563,0.67122 0.101563,0.85351 0,0.27344 -0.05599,0.66081 -0.169922,1.16211 -0.11393,0.50131 -0.169922,0.86589 -0.169922,1.09375 0,0.66081 0.06641,1.1517 0.203125,1.47071 0.15951,0.29622 0.366538,0.44336 0.617188,0.44336 0.29623,-0.0456 0.615241,-0.11394 0.957031,-0.20508 0.27344,0.0911 0.648433,0.1595 1.126953,0.20508 0.45572,0 0.774741,-0.13672 0.957031,-0.41016 0.20507,-0.27344 0.306641,-0.70638 0.306641,-1.29883 0,-0.72916 0.103514,-1.83333 0.308594,-3.31445 0.20508,-1.48112 0.308593,-2.58724 0.308593,-3.31641 0,-0.11393 -0.03516,-0.29622 -0.103515,-0.54687 -0.04557,-0.27344 -0.06836,-0.46615 -0.06836,-0.58008 0,-0.25065 0.06836,-0.63802 0.205078,-1.16211 0.159501,-0.52409 0.240235,-0.90104 0.240235,-1.12891 0.18229,-1.43556 0.364585,-2.56252 0.546875,-3.38283 0.20508,-0.8431 0.387375,-1.37956 0.546875,-1.60742 0.59245,0.88867 1.160161,1.76693 1.707031,2.63281 0.54688,0.86589 1.060543,1.71942 1.539063,2.56252 1.07096,1.80013 1.959635,3.22526 2.666015,4.27344 0.70638,1.02539 1.184897,1.67383 1.435547,1.94726 0.52409,0.54688 1.070965,1.09376 1.640623,1.64063 0.11394,0.18229 0.20508,0.36458 0.27344,0.54687 0.0911,0.15951 0.16992,0.3086 0.23828,0.44532 0.52409,1.02539 1.1517,1.77734 1.88086,2.25586 0.75196,0.47851 1.59505,0.71679 2.5293,0.71679 0.43294,0 1.04818,-0.18229 1.8457,-0.54687 0.82031,-0.36458 1.82292,-0.95704 3.00781,-1.77735 1.11654,-0.75196 2.063164,-1.42317 2.837894,-2.01562 0.721,-0.55135 1.28771,-1.04928 1.73242,-1.50195 -0.006,0.16981 -0.0197,0.36051 -0.0586,0.61328 -0.52409,0.52409 -0.91146,1.07096 -1.16211,1.64062 -0.27343,0.54688 -0.41015,1.12696 -0.41015,1.74219 0,1.11654 0.26107,1.94922 0.78515,2.49609 0.52409,0.52409 1.33399,0.78516 2.42774,0.78516 0.1595,0 0.41015,-0.0788 0.75195,-0.23828 0.3418,-0.13672 0.75195,-0.33138 1.23047,-0.58203 0.75195,-0.41016 1.42319,-0.80795 2.01563,-1.19532 0.61524,-0.38736 1.15169,-0.77473 1.60742,-1.1621 0.22786,-0.22787 0.61523,-0.60482 1.16211,-1.12891 0.54687,-0.52409 1.2181,-1.19532 2.01562,-2.01563 0.59245,-0.47852 1.10612,-0.88867 1.53906,-1.23046 0.45573,-0.3418 0.83269,-0.62761 1.12891,-0.85547 0.18229,-0.20508 0.33984,-0.36459 0.47656,-0.47852 l 0.37696,-0.375 c 0.18229,0.22787 0.29622,0.45573 0.34179,0.68359 0.0684,0.20507 0.10157,0.41016 0.10157,0.61524 0.13672,1.70898 0.60481,2.98502 1.40234,3.82812 0.79752,0.84309 1.93685,1.26368 3.41797,1.26368 0.63802,0 1.27604,-0.12435 1.91406,-0.375 0.63802,-0.27344 1.29883,-0.67318 1.98242,-1.19727 0.56966,-0.45573 1.10612,-0.93424 1.60742,-1.43555 0.52409,-0.52408 1.04623,-1.02539 1.57032,-1.5039 -0.002,-0.006 -0.006,-0.0152 -0.008,-0.0215 0.62516,-0.51337 1.16667,-0.9517 1.61523,-1.31054 0.45573,-0.36459 0.8099,-0.63802 1.06055,-0.82032 l 0.13672,-0.0684 c 0.22787,0 0.38541,0.16993 0.47656,0.51172 0.11393,0.3418 0.17188,0.85547 0.17188,1.53907 -0.0684,0.47851 -0.14714,0.91145 -0.23829,1.29882 0.13672,0.41016 0.24871,0.72917 0.33985,0.95704 -0.0684,0.27343 -0.12435,0.51171 -0.16992,0.71679 -0.0228,0.20508 -0.0332,0.37696 -0.0332,0.51367 0,0.72917 0.1927,1.27605 0.58007,1.64063 0.38737,0.3418 0.95704,0.51172 1.70899,0.51172 1.02539,0 1.92447,-0.22787 2.69921,-0.6836 0.79753,-0.47851 1.44792,-1.20768 1.94922,-2.1875 0.75195,-0.34179 1.51433,-0.83072 2.28907,-1.46875 0.77474,-0.6608 1.53905,-1.48112 2.29101,-2.46093 0.56966,-0.54688 1.09376,-1.02539 1.57227,-1.43555 0.5013,-0.41016 0.95702,-0.71875 1.36718,-0.92383 0.0911,0.27344 0.13672,0.49089 0.13672,0.65039 0.0228,0.13672 0.056,0.25065 0.10157,0.3418 -0.13672,1.0026 -0.28385,1.93685 -0.44336,2.80273 -0.1595,0.8431 -0.35221,1.59506 -0.58008,2.25586 -0.5013,1.13933 -0.93619,2.12956 -1.30078,2.97266 -0.34179,0.8431 -0.6608,1.56185 -0.95703,2.1543 -0.0684,0.25065 -0.1595,0.5013 -0.27344,0.75195 -0.0911,0.25065 -0.1823,0.46615 -0.27344,0.64844 -0.54688,0.59244 -1.20573,1.31119 -1.98047,2.15429 -0.77474,0.86589 -1.6302,1.84571 -2.56445,2.93946 -1.25325,1.48112 -2.23307,2.6888 -2.93945,3.62304 -0.68359,0.957039 -1.10613,1.640629 -1.26563,2.050779 -0.22787,0.20508 -0.43098,0.38737 -0.61328,0.54688 -0.1595,0.15951 -0.2858,0.29622 -0.37695,0.41016 0,0.11393 -0.0456,0.31901 -0.13672,0.61523 l -1.02539,0.88867 c -0.36458,0.66081 -0.76237,1.29883 -1.19531,1.91406 -0.29622,0.38737 -0.50326,0.75195 -0.61719,1.09375 -0.11393,0.34179 -0.16992,0.62566 -0.16992,0.85352 0,0.43294 0.11392,0.75195 0.34179,0.95703 0.22786,0.20508 0.59245,0.3086 1.09375,0.30859 1.3444,0 2.72396,-0.5013 4.13672,-1.5039 1.41277,-1.0026 2.90429,-2.54168 4.47656,-4.61524 0.45573,-0.63803 1.18489,-1.74218 2.1875,-3.314449 1.02539,-1.57226 2.30144,-3.61263 3.82813,-6.11914 1.02539,-1.66341 2.40495,-3.33724 4.13672,-5.02344 1.75456,-1.70898 3.8509,-3.43033 6.28906,-5.16211 0.43294,-0.29622 0.77279,-0.56966 1.02344,-0.82031 l 0.68359,-0.68359 -1.36719,-3.14453 c -1.43555,1.43554 -2.63086,2.58724 -3.58789,3.45312 -0.93425,0.8431 -1.64063,1.37761 -2.11914,1.60547 l -0.23828,-0.30664 c 0.47851,-1.41276 0.92187,-2.70117 1.33203,-3.86328 0.43294,-1.1849 0.8431,-2.19792 1.23047,-3.04102 0.45573,-1.3444 0.8431,-2.50653 1.16211,-3.48635 0.31901,-1.0026 0.5573,-1.8457 0.7168,-2.52929 l 0.0703,-0.41016 c 0.0456,-0.1595 0.0664,-0.31901 0.0664,-0.47851 0,-0.38737 -0.13673,-0.67318 -0.41016,-0.85547 -0.25066,-0.20508 -0.63607,-0.30664 -1.16016,-0.30664 -0.77474,0 -1.43749,0.11393 -1.98437,0.34179 -0.52408,0.22787 -0.93425,0.54687 -1.23047,0.95703 -0.72917,0.79752 -1.38803,1.48112 -1.98047,2.05079 -0.56967,0.56966 -1.08333,1.0358 -1.53906,1.40039 -1.18489,1.16213 -2.22071,2.18752 -3.10938,3.07619 -0.86589,0.88867 -1.59505,1.60742 -2.1875,2.15429 -0.72917,0.61523 -1.39192,1.13933 -1.98437,1.57227 -0.56966,0.41016 -1.07097,0.75195 -1.50391,1.02539 l -0.16992,0.0332 c -0.13672,0 -0.26302,-0.0456 -0.37695,-0.13671 -0.0911,-0.0911 -0.13672,-0.25065 -0.13672,-0.47852 0,-1.02539 0.34374,-2.5293 1.02734,-4.51172 0.68359,-1.98244 1.02344,-3.41799 1.02344,-4.30666 0,-0.59245 -0.15755,-1.02539 -0.47656,-1.29883 -0.29622,-0.27343 -0.71876,-0.41015 -1.26563,-0.41015 -0.43295,0 -0.86589,0.11393 -1.29883,0.34179 -0.43294,0.22787 -0.87826,0.54688 -1.33398,0.95703 -0.75196,0.79753 -1.40039,1.49349 -1.94726,2.08594 -0.54688,0.56966 -0.99219,1.05862 -1.33399,1.46877 -0.52408,0.5013 -1.33203,1.13932 -2.42578,1.91406 -1.07096,0.77473 -1.8685,1.43555 -2.39258,1.98243 0.0163,0.0122 0.0274,0.0352 0.043,0.0488 -0.143,0.13588 -0.2924,0.26088 -0.45312,0.36133 -0.15951,0.11394 -0.28582,0.19466 -0.37696,0.24024 l -0.47656,0.54687 c -0.13671,0.18229 -0.2858,0.375 -0.44531,0.58008 -0.20508,0.18229 -0.41017,0.33138 -0.61524,0.44531 -0.18229,0.11394 -0.37499,0.16992 -0.58007,0.16992 -0.68359,0 -1.24284,-0.28385 -1.67578,-0.85351 -0.41016,-0.59245 -0.60483,-1.25326 -0.58204,-1.98242 0,-1.04818 0.0247,-2.14193 0.0703,-3.28125 -0.0456,-0.75198 -0.19466,-1.31122 -0.44531,-1.6758 -0.25065,-0.38737 -0.61524,-0.58008 -1.09375,-0.58008 -0.77474,0 -1.61783,0.30664 -2.52929,0.92187 -0.91146,0.59245 -1.89129,1.5163 -2.93946,2.76955 -0.20508,0.13672 -0.38736,0.25066 -0.54687,0.3418 l -0.47852,0.27344 c -0.20508,0.13672 -0.55925,0.43294 -1.06055,0.88867 -0.47852,0.43294 -1.10416,1.0026 -1.8789,1.70898 -0.6608,0.63803 -1.26562,1.14974 -1.8125,1.53711 -0.54687,0.38737 -1.06901,0.66081 -1.57031,0.82032 l -0.24024,-0.30664 c 0.6608,-0.93425 1.19726,-1.6862 1.60742,-2.25586 0.41015,-0.56966 0.69402,-0.93425 0.85352,-1.09375 1.27604,-1.11654 2.28906,-2.07357 3.04101,-2.8711 0.77474,-0.79752 1.27605,-1.44793 1.50391,-1.94924 0.52409,-0.38737 0.94662,-0.72916 1.26563,-1.02539 0.31901,-0.29622 0.5345,-0.5013 0.64843,-0.61523 0.1595,-0.22787 0.35416,-0.48893 0.58203,-0.78516 0.70638,-0.52409 1.32162,-1.04817 1.84571,-1.57226 0.52409,-0.54688 0.96939,-1.06056 1.33398,-1.53907 0.6608,-0.50131 1.27408,-0.95703 1.84375,-1.36718 0.36458,-0.25065 0.6276,-0.55729 0.78711,-0.92188 0.18229,-0.36458 0.27344,-0.78711 0.27344,-1.26562 0,-0.45573 -0.14713,-0.80795 -0.44336,-1.0586 -0.27343,-0.25065 -0.70833,-0.37695 -1.30078,-0.37695 -1.07096,0 -2.39259,0.49089 -3.96485,1.4707 -1.54948,0.97982 -3.36002,2.44857 -5.43359,4.40821 -0.45572,0.43294 -0.87825,0.78711 -1.26562,1.06054 -0.38737,0.25065 -0.70639,0.44336 -0.95704,0.58008 -0.52409,0.45573 -0.95507,0.85547 -1.29687,1.19727 -0.34179,0.34179 -0.60481,0.62565 -0.78711,0.85351 -0.34179,0.15951 -0.6504,0.3418 -0.92383,0.54688 -0.25065,0.20508 -0.45378,0.45573 -0.61328,0.75195 -0.20508,0.36458 -0.38736,0.65041 -0.54687,0.85549 -0.15951,0.18229 -0.29622,0.32943 -0.41016,0.44336 l -3.11133,2.05085 c -0.22787,0.38737 -0.42058,0.71875 -0.58008,0.99219 -0.18229,0.25065 -0.319,0.42057 -0.41015,0.51172 0.005,0.0109 0.009,0.0204 0.0137,0.0312 -0.0589,0.14527 -0.39874,0.41744 -1.04102,0.82422 -0.660814,0.41014 -1.091794,0.76237 -1.296874,1.05859 -0.93424,0.47852 -1.68816,0.85546 -2.25782,1.12891 -0.56966,0.25065 -0.9095,0.375 -1.02343,0.375 -0.70638,0 -1.4935,-0.46616 -2.35938,-1.4004 -0.8431,-0.95704 -1.76693,-2.39257 -2.76953,-4.30664 -0.59245,-1.27604 -1.19532,-2.54168 -1.81055,-3.79494 -0.59245,-1.25325 -1.16211,-2.53971 -1.70898,-3.86133 -0.29623,-0.63802 -0.63802,-1.33398 -1.02539,-2.08593 0,-0.27344 0.136716,-0.59245 0.410156,-0.95704 0.27344,-0.38736 0.683589,-0.84309 1.230469,-1.36718 1.321605,-1.23047 2.802725,-2.75716 4.443355,-4.58008 1.64062,-1.82293 3.44075,-3.94206 5.40039,-6.35742 0.88867,-1.11654 1.65299,-2.14193 2.29102,-3.076171 0.638024,-0.93425 1.139334,-1.78776 1.503914,-2.5625 0.18229,-0.22787 0.36457,-0.43295 0.54687,-0.61524 0.18229,-0.18229 0.35221,-0.3418 0.51172,-0.47851 0.54687,-0.50131 0.94466,-1.16211 1.19531,-1.98243 0.27343,-0.84309 0.41016,-1.8125 0.41016,-2.90625 0,-0.54687 -0.0788,-1.02539 -0.23828,-1.43554 -0.13672,-0.43295 -0.37695,-0.82031 -0.71875,-1.16211 z m 98.13088,5.19531 c -0.18229,0 -0.36459,0.0579 -0.54688,0.17188 -0.15951,0.11393 -0.29622,0.27343 -0.41016,0.47851 -0.45572,0.82031 -0.90104,1.69662 -1.33398,2.63086 -0.43295,0.91146 -0.80794,1.90365 -1.12695,2.97461 -0.0911,0.364581 -0.21745,0.671221 -0.37696,0.921871 -0.13672,0.25066 -0.2487,0.45573 -0.33984,0.61524 -0.22787,0.41016 -0.57161,1.16211 -1.02734,2.25586 -0.45573,1.07096 -1.01302,2.47331 -1.67383,4.20508 -0.68359,1.82292 -1.23047,3.30403 -1.64063,4.44336 -0.41016,1.13932 -0.68359,1.97005 -0.82031,2.49414 -0.45573,0.52409 -0.95702,1.28841 -1.5039,2.29101 -0.54688,1.00261 -1.14974,2.22071 -1.81055,3.65625 -0.5013,1.02539 -1.01497,1.93685 -1.53906,2.73438 -0.5013,0.77476 -1.07097,1.42515 -1.70899,1.94924 -0.3418,0.31901 -0.63801,0.61523 -0.88867,0.88867 -0.25065,0.25065 -0.44531,0.48893 -0.58203,0.71679 -0.11393,0.27344 -0.21549,0.47852 -0.30664,0.61524 -0.0911,0.11393 -0.1823,0.20508 -0.27344,0.27344 0.0163,0.0122 0.0274,0.0352 0.043,0.0488 -0.143,0.13588 -0.29241,0.26088 -0.45313,0.36133 -0.15951,0.11394 -0.28581,0.19466 -0.37695,0.24024 l -0.47656,0.54687 c -0.13672,0.18229 -0.2858,0.375 -0.44531,0.58008 -0.20508,0.18229 -0.41016,0.33138 -0.61524,0.44531 -0.18229,0.11394 -0.375,0.16992 -0.58008,0.16992 -0.6836,0 -1.24284,-0.28385 -1.67578,-0.85351 -0.41016,-0.59245 -0.60482,-1.25326 -0.58203,-1.98242 0,-1.04818 0.0247,-2.14193 0.0703,-3.28125 -0.0456,-0.75198 -0.19466,-1.31122 -0.44531,-1.6758 -0.25065,-0.38737 -0.61524,-0.58008 -1.09375,-0.58008 -0.77474,0 -1.61784,0.30664 -2.5293,0.92187 -0.91146,0.59245 -1.8913,1.5163 -2.93947,2.76955 -0.20508,0.13672 -0.38736,0.25066 -0.54687,0.3418 l -0.47852,0.27344 c -0.20508,0.13672 -0.55925,0.43294 -1.06055,0.88867 -0.47852,0.43294 -1.10416,1.0026 -1.8789,1.70898 -0.6608,0.63803 -1.26562,1.14974 -1.8125,1.53711 -0.54687,0.38737 -1.06902,0.66081 -1.57032,0.82032 l -0.24025,-0.30662 c 0.6608,-0.93425 1.19726,-1.6862 1.60742,-2.25586 0.41015,-0.56966 0.69402,-0.93425 0.85352,-1.09375 1.27604,-1.11654 2.28906,-2.07357 3.04101,-2.8711 0.77474,-0.79752 1.27604,-1.44793 1.50391,-1.94924 0.52408,-0.38737 0.94661,-0.72916 1.26562,-1.02539 0.31901,-0.29622 0.53451,-0.5013 0.64844,-0.61523 0.1595,-0.22787 0.35416,-0.48893 0.58203,-0.78516 0.7064,-0.52409 1.32164,-1.04817 1.84573,-1.57226 0.52409,-0.54688 0.96939,-1.06056 1.33398,-1.53907 0.6608,-0.50131 1.27408,-0.95703 1.84375,-1.36718 0.36458,-0.25065 0.6276,-0.55729 0.78711,-0.92188 0.18229,-0.36458 0.27344,-0.78711 0.27344,-1.26562 0,-0.45573 -0.14713,-0.80795 -0.44336,-1.0586 -0.27343,-0.25065 -0.70833,-0.37695 -1.30078,-0.37695 -1.07096,0 -2.39259,0.49089 -3.96485,1.4707 -1.5495,0.97982 -3.36005,2.44857 -5.43361,4.40821 -0.45573,0.43294 -0.87826,0.78711 -1.26563,1.06054 -0.38737,0.25065 -0.70638,0.44336 -0.95703,0.58008 -0.52409,0.45573 -0.95507,0.85547 -1.29687,1.19727 -0.34179,0.34179 -0.60481,0.62565 -0.78711,0.85351 -0.34179,0.15951 -0.6504,0.3418 -0.92383,0.54688 -0.25065,0.20508 -0.45377,0.45573 -0.61328,0.75195 -0.20507,0.36458 -0.38737,0.65041 -0.54688,0.85549 -0.15951,0.18229 -0.29621,0.32943 -0.41015,0.44336 l -3.11133,2.05078 c -0.22787,0.38737 -0.42058,0.71875 -0.58008,0.99219 -0.18229,0.25065 -0.319,0.42057 -0.41015,0.51172 0.20508,0.45573 0.39778,0.88867 0.58007,1.29882 0.1595,0.38737 0.30664,0.74154 0.44336,1.06055 0.0911,0.15951 0.16146,0.30664 0.20703,0.44336 0.0684,0.11393 0.10157,0.22787 0.10157,0.3418 0,0.18229 -0.0228,0.42252 -0.0684,0.71875 -0.52409,0.52409 -0.91146,1.07096 -1.16211,1.64062 -0.27343,0.54688 -0.41016,1.12696 -0.41016,1.74219 0,1.11654 0.26108,1.94922 0.78516,2.49609 0.52409,0.52409 1.33398,0.78516 2.42773,0.78516 0.1595,0 0.41016,-0.0788 0.75196,-0.23828 0.3418,-0.13672 0.75194,-0.33138 1.23046,-0.58203 0.75195,-0.41016 1.42318,-0.80795 2.01563,-1.19532 0.61523,-0.38736 1.15169,-0.77473 1.60742,-1.1621 0.22786,-0.22787 0.61523,-0.60482 1.16211,-1.12891 0.54687,-0.52409 1.21811,-1.19532 2.01563,-2.01563 0.59245,-0.47852 1.10612,-0.88867 1.53906,-1.23046 0.45573,-0.3418 0.83268,-0.62761 1.1289,-0.85547 0.18229,-0.20508 0.33985,-0.36459 0.47657,-0.47852 l 0.37699,-0.375 c 0.18229,0.22787 0.29623,0.45573 0.3418,0.68359 0.0684,0.20507 0.10156,0.41016 0.10156,0.61524 0.13671,1.70898 0.60483,2.98502 1.40236,3.82812 0.79752,0.84309 1.93685,1.26368 3.41797,1.26368 0.63802,0 1.27604,-0.12435 1.91406,-0.375 0.63802,-0.27344 1.29884,-0.67318 1.98243,-1.19727 0.56966,-0.45573 1.10612,-0.93424 1.60742,-1.43555 0.52409,-0.52408 1.04622,-1.02539 1.57031,-1.5039 -0.003,-0.009 -0.009,-0.0222 -0.0117,-0.0312 0.34474,-0.47507 0.57383,-0.80451 0.66211,-0.95899 0.11393,-0.18229 0.21549,-0.30859 0.30664,-0.37695 0.61523,-0.72917 1.15169,-1.3444 1.60742,-1.8457 0.45573,-0.5013 0.83074,-0.93425 1.12696,-1.29883 l 0.24023,0.3418 c 0,0.36458 -0.0456,0.79752 -0.13672,1.29882 -0.0911,0.47852 -0.21745,1.03775 -0.37695,1.67578 -0.41016,1.34441 -0.7168,2.63087 -0.92188,3.86133 -0.18229,1.23047 -0.27343,2.39258 -0.27343,3.48633 0,1.07097 0.22786,1.86849 0.68359,2.39258 0.45573,0.52409 1.13932,0.78711 2.05078,0.78711 0.59245,0 1.08138,-0.21745 1.46875,-0.65039 0.41015,-0.41016 0.77474,-0.8431 1.09375,-1.29883 0.31901,-0.29622 0.60482,-0.55729 0.85547,-0.78516 0.25065,-0.22786 0.43295,-0.42252 0.54688,-0.58203 0.41016,-0.5013 0.80794,-0.97981 1.19531,-1.43554 0.41016,-0.47852 0.82032,-0.96745 1.23047,-1.46875 0.63802,-0.77474 1.37955,-1.54948 2.22265,-2.32422 0.11393,0 0.97982,0.70638 2.59766,2.11914 1.64062,1.38997 2.80274,2.08398 3.48633,2.08398 0.66081,0 1.32162,-0.14713 1.98242,-0.44336 0.66081,-0.31901 1.32161,-0.79752 1.98242,-1.43554 0.59244,-0.50131 1.14974,-1.01498 1.67383,-1.53907 0.54687,-0.52408 1.11849,-1.04817 1.71094,-1.57226 l -1.36719,-3.14453 c -0.34179,0.22786 -0.6608,0.47851 -0.95703,0.75195 -0.27343,0.25065 -0.55924,0.49089 -0.85547,0.71875 -0.38736,0.31901 -0.72916,0.55729 -1.02539,0.7168 -0.27343,0.13672 -0.52408,0.20507 -0.75195,0.20507 -0.68359,0 -1.54948,-0.60286 -2.59766,-1.81054 -1.04817,-1.23047 -1.57227,-2.14193 -1.57227,-2.73438 0,-0.8431 0.97983,-2.59767 2.93946,-5.26369 1.95964,-2.66601 2.93945,-4.8763 2.93945,-6.63086 0,-0.68359 -0.11394,-1.19726 -0.3418,-1.53906 -0.22787,-0.3418 -0.60481,-0.51172 -1.1289,-0.51172 -0.22786,0 -0.56771,0.30664 -1.02344,0.92187 -0.45572,0.59245 -1.02735,1.4935 -1.71094,2.70118 -1.23047,2.27864 -2.2207,3.99804 -2.97265,5.16015 -0.72917,1.16211 -1.18489,1.77735 -1.36719,1.84571 -1.43554,0.34179 -2.41537,0.80989 -2.93945,1.40236 -0.5241,0.59245 -0.86589,1.64063 -1.0254,3.14453 l -0.10156,0.99024 c -0.45573,1.0026 -0.91146,1.92643 -1.36719,2.76953 -0.43294,0.82031 -0.87826,1.55989 -1.33398,2.2207 -0.0911,0.25065 -0.22787,0.44531 -0.41016,0.58203 -0.15951,0.13672 -0.3522,0.20508 -0.58007,0.20508 -0.11393,0 -0.20508,-0.0352 -0.27344,-0.10352 -0.0456,-0.0684 -0.0703,-0.18229 -0.0703,-0.34179 0,-0.22787 0.0911,-0.6836 0.27343,-1.36719 0.18229,-0.70638 0.45574,-1.66341 0.82032,-2.87109 0.38737,-1.25326 0.76431,-2.5293 1.1289,-3.82813 0.36458,-1.29883 0.74154,-2.57489 1.12891,-3.82814 0.47852,-1.61784 0.95507,-3.05339 1.43359,-4.30665 0.47851,-1.25326 0.92384,-2.31184 1.33399,-3.17773 2.028,-3.85091 3.53189,-7.12174 4.51171,-9.81055 0.97982,-2.71158 1.47071,-4.830721 1.47071,-6.357421 0,-1.36718 -0.22787,-2.40299 -0.6836,-3.10937 -0.43294,-0.70638 -1.10611,-1.06055 -2.01757,-1.06055 z m 196.8789,5.33008 c -0.47851,0 -0.90104,0.056 -1.26562,0.16992 -0.36458,0.0911 -0.65886,0.21744 -0.88672,0.37695 -0.52409,0.61523 -0.97982,1.162111 -1.36719,1.640631 -0.63802,0.0684 -1.37956,0.62565 -2.22265,1.67383 -0.82032,1.02539 -1.23047,1.88086 -1.23047,2.56445 0,0.77474 0.0788,1.38998 0.23828,1.8457 0.18229,0.45573 0.42252,0.76237 0.71875,0.92188 0.3418,0 0.68359,0.0228 1.02539,0.0684 0.36458,0.0228 0.73958,0.0579 1.12695,0.10351 0.13672,0.0228 0.37696,-0.0352 0.71875,-0.17187 0.36459,-0.15951 0.80795,-0.42057 1.33203,-0.78516 0.50131,-0.29622 0.92383,-0.62761 1.26563,-0.99219 0.36458,-0.38737 0.65039,-0.83072 0.85547,-1.33203 0.0911,-0.22786 0.21549,-0.60481 0.375,-1.1289 0.18229,-0.52409 0.38737,-1.19531 0.61523,-2.01563 0.0912,-0.43294 0.20508,-0.9694 0.3418,-1.60742 0,-0.432941 -0.13672,-0.762381 -0.41016,-0.990231 -0.25065,-0.22787 -0.6608,-0.3418 -1.23047,-0.3418 z m -51.26953,9.193361 c -0.41015,0 -0.78712,0.0352 -1.12891,0.10351 -0.34179,0.0683 -0.64843,0.14713 -0.92187,0.23828 -0.29622,0.22786 -0.59245,0.43295 -0.88867,0.61524 -0.29622,0.18229 -0.56966,0.37695 -0.82031,0.58203 l -1.57227,1.91406 c -0.52409,0.61524 -1.02539,1.1849 -1.50391,1.70899 -0.56966,0.93424 -1.03776,1.77733 -1.40234,2.52929 -0.3418,0.75195 -0.61523,1.37761 -0.82031,1.87891 -0.18229,0.5013 -0.35221,0.96939 -0.51172,1.40234 -0.13672,0.43294 -0.24024,0.80795 -0.3086,1.12696 -0.0228,0.45573 -0.0684,0.91145 -0.13671,1.36718 -0.0684,0.43294 -0.13477,0.87826 -0.20313,1.33399 -0.6608,0.52409 -1.20768,1.03583 -1.64062,1.53713 -0.43295,0.47852 -0.78711,0.95703 -1.06055,1.43555 0.36458,0.75195 0.66081,1.37954 0.88867,1.88085 0.22787,0.5013 0.38737,0.92188 0.47852,1.26368 0.27344,-0.3418 0.52409,-0.59246 0.75195,-0.75196 0.22787,-0.1823 0.43293,-0.27343 0.61523,-0.27343 0.22786,0 0.43295,0.1263 0.61524,0.37695 0.18229,0.22787 0.37695,0.59245 0.58203,1.09375 0.25065,0.61524 0.48893,1.14974 0.7168,1.60547 0.22786,0.43294 0.45573,0.76431 0.68359,0.99219 0.43294,0.47851 0.9694,0.84309 1.60742,1.09374 0.66081,0.25066 1.41081,0.375 2.25391,0.375 0.63802,0 1.1849,-0.0456 1.64062,-0.13671 0.47852,-0.11393 0.90105,-0.28386 1.26563,-0.51172 0.88867,0 1.85807,-0.31901 2.90625,-0.95703 1.07096,-0.66081 2.25586,-1.63021 3.55469,-2.90625 -0.13672,-0.38737 -0.31901,-0.8431 -0.54688,-1.36719 -0.22786,-0.52409 -0.49088,-1.11655 -0.78711,-1.77734 -0.25065,0.20508 -0.5013,0.37695 -0.75195,0.51367 -0.25065,0.11393 -0.43295,0.20507 -0.54688,0.27343 -0.56967,0.31901 -1.22005,0.59245 -1.94922,0.82032 -0.72917,0.22786 -1.53711,0.375 -2.42578,0.44336 -0.54688,-0.11393 -1.02539,-0.23828 -1.43554,-0.375 -0.38737,-0.13672 -0.67123,-0.27344 -0.85352,-0.41016 -0.31901,-0.18229 -0.57162,-0.45573 -0.7539,-0.82031 -0.15952,-0.36458 -0.23829,-0.78711 -0.23829,-1.26563 0,-0.27343 0.058,-0.52408 0.17188,-0.75195 0.11393,-0.25065 0.25064,-0.45574 0.41015,-0.61523 1.89128,-1.84573 3.39518,-3.48635 4.51172,-4.9219 1.11653,-1.43554 1.83334,-2.69922 2.15235,-3.79297 l 0.30859,-1.09375 c 0.15951,-0.54687 0.27149,-0.94661 0.33984,-1.19726 0.0667,-0.18341 0.10907,-0.26033 0.12696,-0.23633 -0.0862,-0.51893 -0.16317,-1.00186 -0.22852,-1.4375 -0.13671,-0.52409 -0.2858,-0.9694 -0.44531,-1.33399 -0.13672,-0.36458 -0.28385,-0.63802 -0.44336,-0.82031 -0.22786,-0.27343 -0.52409,-0.46614 -0.88867,-0.58008 -0.3418,-0.11393 -0.79753,-0.17187 -1.36719,-0.17187 z m 4.30664,17.77346 c 0.36459,0.75195 0.6608,1.37954 0.88867,1.88085 0.22786,0.5013 0.38737,0.92188 0.47852,1.26368 0.20508,-0.22787 0.35221,-0.43294 0.44336,-0.61524 l 0.20703,-0.41015 c 0.38737,-0.36459 0.72721,-0.69401 1.02344,-0.99024 0.31901,-0.29622 0.59245,-0.52409 0.82031,-0.68359 0.13672,-0.0684 0.39974,-0.29623 0.78711,-0.6836 0.38737,-0.38737 0.89909,-0.92382 1.53711,-1.60742 0.52409,-0.59246 0.9694,-1.02542 1.33398,-1.29885 0.38737,-0.27344 0.69597,-0.41015 0.92383,-0.41015 0.25065,0 0.43295,0.0456 0.54688,0.13672 0.11393,0.0911 0.16992,0.21745 0.16992,0.37695 0,0.15951 -0.0228,0.35221 -0.0684,0.58008 -0.0456,0.2051 -0.12435,0.45575 -0.23828,0.75197 -0.11393,0.31901 -0.21745,0.58203 -0.3086,0.78711 -0.0684,0.18229 -0.10156,0.32943 -0.10156,0.44336 -0.56966,1.91406 -1.07097,3.58984 -1.50391,5.02539 -0.43295,1.43555 -0.82226,2.63086 -1.16406,3.58789 l 0.20703,1.91406 c 0.0911,0.61524 0.59245,0.92383 1.50391,0.92383 0.45573,0 0.86589,-0.0579 1.23047,-0.17187 0.38737,-0.0911 0.72721,-0.26107 1.02344,-0.51172 l 0.89062,-0.82032 0.88672,-0.88867 c 1.16211,-1.1849 2.13151,-2.21028 2.90625,-3.07617 0.77474,-0.86588 1.32161,-1.57226 1.64062,-2.11914 0.1595,-0.29622 0.46615,-0.55924 0.92188,-0.78711 0.45573,-0.22786 1.19727,-0.79752 2.22266,-1.70898 0.47851,-0.43294 0.92187,-0.78517 1.33203,-1.0586 0.43294,-0.27344 0.86784,-0.47851 1.30078,-0.61523 l 0.30664,0.10156 c 0.5013,0.66081 0.93425,1.24284 1.29883,1.74414 0.38737,0.47852 0.72917,0.86589 1.02539,1.16211 0.36458,0.72917 0.68359,1.34439 0.95703,1.8457 0.27344,0.47851 0.5013,0.80795 0.68359,0.99024 0.3418,0.45573 0.75196,0.79753 1.23047,1.02539 0.47852,0.22787 0.97982,0.3418 1.50391,0.3418 0.45573,0 0.91146,-0.0911 1.36719,-0.27344 0.45573,-0.20508 0.94661,-0.54687 1.4707,-1.02539 0.38737,-0.31901 0.78516,-0.64845 1.19531,-0.99024 0.41016,-0.3418 0.80794,-0.67317 1.19531,-0.99218 l -0.01,-0.0234 c 0.87786,-0.96605 1.62293,-1.69001 2.23242,-2.16406 0.61524,-0.5013 1.10417,-0.75196 1.46875,-0.75196 0.13672,0 0.3086,0.13672 0.51367,0.41016 0.20508,0.25065 0.44336,0.63802 0.7168,1.16211 0.22786,0.3418 0.4349,0.63802 0.61719,0.88867 0.18229,0.25065 0.31901,0.4681 0.41015,0.65039 0.75196,2.1875 1.43554,3.51953 2.05078,3.99805 0.61523,0.47852 1.95769,0.71875 4.03125,0.71875 0.3418,0 0.8431,-0.15951 1.50391,-0.47852 0.66081,-0.34179 1.46029,-0.85546 2.39453,-1.53906 0.8431,-0.61523 1.55989,-1.14974 2.15235,-1.60547 0.59568,-0.46332 1.06702,-0.872 1.42773,-1.22851 -0.005,0.16299 -0.0531,0.42603 -0.16211,0.81836 -0.11393,0.41014 -0.17188,0.70638 -0.17188,0.88867 0,0.66081 0.0456,1.21809 0.13672,1.67383 0.0684,0.45573 0.20508,0.84309 0.41016,1.1621 0.15951,0.29622 0.41016,0.61524 0.75195,0.95704 0.3418,0.31901 0.76236,0.6608 1.26367,1.02539 0.47851,0.34179 1.06055,0.74153 1.74415,1.19726 0.22786,0.11394 0.51172,0.20508 0.85351,0.27344 0.3418,0.0684 0.73111,0.10156 1.16406,0.10156 1.93684,0 3.65625,-0.29622 5.16016,-0.88867 1.52669,-0.56966 2.86068,-1.42318 4,-2.5625 0.25065,-0.25065 0.55729,-0.52409 0.92188,-0.82031 1.11653,-0.45573 2.10677,-1.03776 2.97265,-1.74414 0.86589,-0.72917 1.72135,-1.43555 2.56445,-2.11914 0,-0.11393 -0.45572,-1.16211 -1.36718,-3.14453 -0.56966,0.5013 -1.06055,0.94661 -1.47071,1.33398 -0.38736,0.38737 -0.69401,0.72917 -0.92187,1.02539 -0.18229,0.15951 -0.36459,0.28386 -0.54688,0.375 -0.15951,0.0684 -0.29622,0.13672 -0.41015,0.20508 -0.79753,0.52409 -1.60547,1.03776 -2.42578,1.53906 -0.79753,0.5013 -1.58464,0.97982 -2.35938,1.43555 -0.68359,0.20508 -1.30924,0.375 -1.87891,0.51172 -0.54687,0.11393 -0.99218,0.24023 -1.33398,0.37695 -0.59245,-0.1595 -1.09376,-0.31902 -1.50391,-0.47852 -0.38737,-0.15951 -0.69596,-0.319 -0.92382,-0.47851 -0.31901,-0.22786 -0.55729,-0.52409 -0.7168,-0.88867 -0.1595,-0.38737 -0.24024,-0.8431 -0.24023,-1.36719 0,-0.68359 0.0579,-1.28841 0.17187,-1.8125 0.13672,-0.52409 0.319,-1.0026 0.54687,-1.43555 0.1595,-0.22786 0.44532,-0.52408 0.85547,-0.88867 0.41016,-0.38737 0.92188,-0.82031 1.53711,-1.29883 1.34441,-1.04819 2.403,-1.87892 3.17774,-2.49416 0.79752,-0.63802 1.28841,-1.07096 1.4707,-1.29883 0.5013,-0.22786 1.00261,-0.47851 1.50391,-0.75195 0.5013,-0.27344 1.0026,-0.52409 1.5039,-0.75195 0.75196,-0.43294 1.30925,-0.90105 1.67383,-1.40235 0.38737,-0.52409 0.58203,-1.11653 0.58203,-1.77734 l 0,-1.87891 c -0.0456,-0.27343 -0.16992,-0.5013 -0.375,-0.68359 -0.18229,-0.18229 -0.43489,-0.27344 -0.7539,-0.27344 -0.82031,0 -1.88933,0.31901 -3.21094,0.95703 -1.29883,0.63803 -2.18945,1.26368 -2.66797,1.87891 -0.68359,0.29623 -1.41276,0.69596 -2.1875,1.19727 -0.77474,0.4785 -1.54948,1.05859 -2.32422,1.74218 -1.3444,1.13933 -2.73242,2.32422 -4.16797,3.55469 -0.34179,0.27344 -0.70638,0.52409 -1.09375,0.75195 -0.36458,0.22787 -0.71875,0.46809 -1.06054,0.71875 -0.54688,0.45574 -0.96746,0.85354 -1.26368,1.19534 -0.29623,0.34179 -0.45768,0.63802 -0.48046,0.88867 l -0.30665,0.27344 c 0.004,0.007 0.006,0.0129 0.01,0.0195 -0.35742,0.29049 -0.72426,0.59196 -1.10352,0.90429 -0.36459,0.29623 -0.71874,0.59244 -1.06054,0.88868 -0.45573,0.36457 -0.89909,0.62565 -1.33203,0.78515 -0.43295,0.13672 -0.85547,0.20508 -1.26563,0.20508 -0.34179,0 -0.62565,-0.0456 -0.85351,-0.13672 -0.22787,-0.11393 -0.39974,-0.28385 -0.51368,-0.51172 -0.11393,-0.13671 -0.28386,-0.6608 -0.51171,-1.57226 -0.22787,-0.93425 -0.42254,-1.63021 -0.58204,-2.08594 -0.0911,-0.72917 -0.20312,-1.44599 -0.33984,-2.15237 -0.13672,-0.72917 -0.28581,-1.44791 -0.44531,-2.15429 -0.18229,-0.79753 -0.54688,-1.38998 -1.09375,-1.77735 -0.54688,-0.41016 -1.2181,-0.61523 -2.01563,-0.61523 -0.29622,0 -0.5944,0.0807 -0.89062,0.24023 -0.29623,0.1595 -0.55729,0.42058 -0.78516,0.78516 -0.59245,0.8431 -1.66341,1.94922 -3.21289,3.31641 -1.54948,1.3444 -2.63281,2.43817 -3.24805,3.28127 l -0.10156,0.34179 -0.20508,0.23829 c 0.006,0.004 0.01,0.013 0.0156,0.0176 -0.20055,0.21832 -0.42243,0.38538 -0.66602,0.4961 -0.22786,0.11393 -0.48893,0.16992 -0.78515,0.16992 -0.38737,0 -0.73959,-0.16992 -1.0586,-0.51172 -0.29622,-0.34179 -0.56966,-0.86589 -0.82031,-1.57227 -0.41015,-1.20771 -0.84505,-2.5189 -1.30078,-3.93166 -0.38737,-0.72917 -0.85352,-1.26368 -1.40039,-1.60546 -0.54688,-0.3418 -1.17448,-0.51368 -1.88086,-0.51368 -0.36458,0 -0.79557,0.0911 -1.29688,0.27344 -0.47851,0.18229 -1.02539,0.43294 -1.64062,0.75195 -0.54688,0.34179 -1.02734,0.67318 -1.4375,0.99219 -0.41016,0.31901 -0.76238,0.62565 -1.05859,0.92188 -0.20509,0.22786 -0.38737,0.44531 -0.54688,0.65039 -0.13672,0.20508 -0.25065,0.35221 -0.3418,0.44336 -0.41015,0.31901 -0.78515,0.67317 -1.12695,1.06054 -0.31901,0.3646 -0.58203,0.73961 -0.78711,1.12698 -0.52409,0.45573 -0.97982,0.87825 -1.36719,1.26562 -0.36458,0.36459 -0.63802,0.71679 -0.82031,1.05859 -0.13672,0.1595 -0.26302,0.29623 -0.37695,0.41016 -0.0912,0.11394 -0.19271,0.20508 -0.30664,0.27344 -0.15951,-0.20508 -0.24024,-0.375 -0.24024,-0.51172 0,-0.11393 0.0247,-0.28581 0.0703,-0.51367 0.0456,-0.22786 0.13673,-0.48893 0.27344,-0.78516 0.1823,-0.41015 0.375,-0.84311 0.58008,-1.29883 0.82031,-2.43818 1.42318,-4.3978 1.81055,-5.87892 0.38737,-1.48112 0.58203,-2.48373 0.58203,-3.00782 0,-0.97982 -0.19466,-1.72135 -0.58203,-2.22265 -0.38737,-0.52409 -0.99024,-0.78516 -1.81055,-0.78516 -0.82031,0 -1.59505,0.1823 -2.32422,0.54688 -0.72916,0.36458 -1.41276,0.92187 -2.05078,1.67383 -0.75195,0.8431 -1.40039,1.57226 -1.94726,2.1875 -0.54688,0.59245 -1.00261,1.08333 -1.36719,1.4707 -0.8431,0.95703 -1.56185,1.77734 -2.1543,2.46094 -0.59245,0.66081 -1.09376,1.21809 -1.50391,1.67382 -0.45573,0.45573 -0.86588,0.85548 -1.23046,1.19729 -0.36459,0.3418 -0.66082,0.60287 -0.88868,0.78516 -0.20508,0.27344 -0.37499,0.51367 -0.51172,0.71875 -0.15951,0.18229 -0.2858,0.35221 -0.37695,0.51172 z m 73.82813,0 c 0.36458,0.75195 0.66081,1.37954 0.88867,1.88085 0.22786,0.5013 0.38736,0.92188 0.47851,1.26368 0.27343,-0.3418 0.52409,-0.59246 0.75196,-0.75196 0.22786,-0.1823 0.43294,-0.27343 0.61523,-0.27343 0.22787,0 0.43295,0.1263 0.61524,0.37695 0.18229,0.22787 0.37695,0.59245 0.58203,1.09375 0.25065,0.61524 0.48892,1.14974 0.71679,1.60547 0.22786,0.43294 0.45573,0.76431 0.6836,0.99219 0.43294,0.47851 0.9694,0.84309 1.60742,1.09374 0.66081,0.25066 1.41081,0.375 2.25391,0.375 0.63802,0 1.18489,-0.0456 1.64062,-0.13671 0.47852,-0.11393 0.90104,-0.28386 1.26563,-0.51172 0.88867,0 1.85807,-0.31901 2.90625,-0.95703 1.07096,-0.66081 2.25585,-1.63021 3.55468,-2.90625 -0.13672,-0.38737 -0.31901,-0.8431 -0.54687,-1.36719 -0.22786,-0.52409 -0.49089,-1.11655 -0.78711,-1.77734 -0.25065,0.20508 -0.5013,0.37695 -0.75195,0.51367 -0.25065,0.11393 -0.43295,0.20507 -0.54688,0.27343 -0.56966,0.31901 -1.22005,0.59245 -1.94922,0.82032 -0.72916,0.22786 -1.53711,0.375 -2.42578,0.44336 -0.54687,-0.11393 -1.0254,-0.23828 -1.43555,-0.375 -0.38737,-0.13672 -0.67122,-0.27344 -0.85351,-0.41016 -0.31901,-0.18229 -0.57161,-0.45573 -0.75391,-0.82031 -0.1595,-0.36458 -0.23828,-0.78711 -0.23828,-1.26563 0,-0.27343 0.058,-0.52408 0.17188,-0.75195 0.11393,-0.25065 0.25065,-0.45573 0.41015,-0.61523 1.89128,-1.84573 3.39519,-3.48635 4.51172,-4.9219 1.11654,-1.43554 1.83334,-2.69922 2.15235,-3.79297 l 0.30859,-1.09375 c 0.15951,-0.54687 0.27148,-0.94661 0.33984,-1.19726 0.0667,-0.18341 0.10907,-0.26033 0.12696,-0.23633 -0.0862,-0.51893 -0.16317,-1.00186 -0.22852,-1.4375 -0.13672,-0.52409 -0.28581,-0.9694 -0.44531,-1.33399 -0.13672,-0.36458 -0.28386,-0.63802 -0.44336,-0.82031 -0.22787,-0.27343 -0.52409,-0.46614 -0.88867,-0.58008 -0.3418,-0.11393 -0.79753,-0.17187 -1.36719,-0.17187 -0.41016,0 -0.78711,0.0352 -1.12891,0.10351 -0.34179,0.0683 -0.64843,0.14713 -0.92187,0.23828 -0.29623,0.22786 -0.59245,0.43295 -0.88867,0.61524 -0.29623,0.18229 -0.56966,0.37695 -0.82032,0.58203 l -1.57226,1.91406 c -0.52409,0.61524 -1.02539,1.1849 -1.50391,1.70899 -0.56966,0.93424 -1.03776,1.77733 -1.40234,2.52929 -0.3418,0.75195 -0.61525,1.37761 -0.82032,1.87891 -0.18229,0.5013 -0.35221,0.96939 -0.51171,1.40234 -0.13672,0.43294 -0.24024,0.80795 -0.3086,1.12696 -0.0228,0.45573 -0.0684,0.91145 -0.13672,1.36718 -0.0684,0.43294 -0.13476,0.87826 -0.20312,1.33399 -0.66081,0.52409 -1.20769,1.03583 -1.64063,1.53713 -0.43295,0.47852 -0.7871,0.95702 -1.06054,1.43555 z"
       id="path4262-2" />
    <path
       id="path5316"
       d="m 314.35409,35.68479 c -0.20508,0 -0.43294,0.0684 -0.68359,0.20508 -0.22786,0.13672 -0.5013,0.31901 -0.82031,0.54688 -0.93425,0.18229 -1.72136,0.52409 -2.35938,1.02539 -0.61523,0.47852 -1.09375,1.11654 -1.43554,1.91406 -0.0911,0.22787 -0.22787,0.75195 -0.41016,1.57227 -0.18229,0.82031 -0.39974,1.91406 -0.65039,3.28125 0.0684,0.22786 0.14909,0.51172 0.24023,0.85351 l -0.20508,1.36719 c -0.0684,0.25065 -0.056,0.54688 0.0352,0.88867 0.11393,0.31901 0.28386,0.65039 0.51172,0.99219 0,0.43294 0.0332,0.8431 0.10156,1.23047 0.0684,0.36458 0.15951,0.72917 0.27344,1.09375 -0.0911,0.182291 -0.16992,0.375001 -0.23828,0.580071 -0.0684,0.20508 -0.10156,0.42253 -0.10156,0.6504 0,0.61523 0.0664,1.14973 0.20312,1.60546 0.15951,0.45573 0.35417,0.8431 0.58203,1.16211 l -0.27343,1.33399 c -0.0456,0.0911 0,0.38737 0.13671,0.88867 0,0.63803 -0.0123,1.28646 -0.0351,1.94727 0,0.20508 0.0247,0.43294 0.0703,0.68359 0.0456,0.25065 0.13672,0.54688 0.27344,0.88867 0.11393,0.36459 0.19271,0.67318 0.23828,0.92383 0.0684,0.25065 0.10156,0.46615 0.10156,0.64844 0.18229,1.52669 0.35417,2.86068 0.51367,4 0.1823,1.13932 0.32943,2.08397 0.44336,2.83593 0.13672,0.38737 0.26302,0.72916 0.37696,1.0254 0.11393,0.29622 0.21549,0.52409 0.30664,0.68359 0,0.11393 0.0247,0.35417 0.0703,0.71875 0.0684,0.3418 0.15951,0.80794 0.27344,1.40039 0.27344,1.27604 0.56771,2.41539 0.88671,3.41799 0.31901,0.97982 0.68359,1.8125 1.09376,2.49609 0.22786,0.43295 0.42252,0.88868 0.58203,1.36719 0.1595,0.45573 0.28385,0.96745 0.375,1.53711 l 0.34375,0.44531 0.10156,0.3418 c -0.0684,0.18229 -0.36458,0.55729 -0.88867,1.12695 -0.52409,0.56966 -0.78711,1.04818 -0.78711,1.43555 0,0.56966 0.24023,1.12891 0.71875,1.67578 0.5013,0.54688 1.03581,0.82031 1.60547,0.82031 0.31901,0 0.66276,-0.0684 1.02734,-0.20508 0.38737,-0.11394 0.79753,-0.29622 1.23047,-0.54687 0.22786,-0.3418 0.51171,-0.74155 0.85351,-1.19727 0.5013,-0.25066 0.96744,-0.47851 1.4004,-0.68359 0.63801,-0.70638 1.19726,-1.3444 1.67578,-1.91406 0.47851,-0.56966 0.8763,-1.03581 1.19531,-1.40039 0.0684,-0.13672 0.11393,-0.36459 0.13672,-0.6836 -0.18229,-0.38737 -0.375,-0.82032 -0.58008,-1.29883 0.43294,-0.79753 0.85352,-1.56184 1.26367,-2.29101 0.41016,-0.75195 0.77474,-1.44597 1.09375,-2.08399 0.61524,-1.20771 1.33399,-2.74676 2.1543,-4.61525 0.82031,-1.86849 1.76693,-4.04362 2.83789,-6.52734 1.27604,-2.98503 2.20833,-5.35481 2.80078,-7.10938 0.61524,-1.75455 0.86784,-2.86067 0.75391,-3.31641 0.25065,-0.41016 0.45377,-0.76236 0.61328,-1.05859 0.1595,-0.31901 0.24023,-0.59244 0.24023,-0.82031 0.0684,-0.3418 0.11394,-0.68359 0.13672,-1.025391 0.0456,-0.3418 0.0912,-0.67318 0.13672,-0.99219 0.20508,-1.36718 0.36458,-2.42578 0.47852,-3.17773 0.11392,-0.75195 0.17187,-1.20768 0.17187,-1.36719 0,-0.43294 -0.0579,-0.76432 -0.17187,-0.99219 -0.11395,-0.22786 -0.29623,-0.3418 -0.54688,-0.3418 -0.45573,0.13671 -0.80794,0.25066 -1.05859,0.3418 l -2.1875,0.92383 c -0.38737,0.15951 -0.75196,0.53451 -1.09375,1.12695 -0.31901,0.59245 -0.59246,1.37956 -0.82032,2.35938 -0.0911,0.66081 -0.20703,1.30923 -0.34375,1.94726 -0.13671,0.615231 -0.26106,1.253261 -0.375,1.914071 0.0911,0.29622 0.1823,0.63802 0.27344,1.02539 l -0.17187,0.65039 c -0.18229,0.61523 -0.48893,1.49154 -0.92188,2.63086 -0.41015,1.13933 -0.92383,2.5293 -1.53906,4.16992 -0.75195,1.98242 -1.38997,3.57746 -1.91406,4.78515 -0.52409,1.20768 -0.93425,2.04037 -1.23047,2.4961 -0.29623,0.52409 -0.55729,0.99023 -0.78516,1.40039 -0.22786,0.41016 -0.39778,0.76432 -0.51172,1.06055 -0.45573,1.13932 -0.85546,2.05078 -1.19726,2.73437 -0.31901,0.66081 -0.58203,1.11656 -0.78711,1.36721 -0.29623,0.52409 -0.69401,1.03581 -1.19532,1.53711 -0.13672,0 -0.26107,-0.0684 -0.375,-0.20508 -0.11394,-0.13672 -0.19466,-0.32943 -0.24023,-0.58008 -0.1595,-0.75195 -0.31901,-1.48114 -0.47851,-2.18752 -0.15952,-0.70638 -0.3086,-1.36718 -0.44532,-1.98242 -0.18229,-0.22786 -0.31901,-0.44531 -0.41015,-0.65039 -0.0911,-0.22786 -0.13672,-0.42057 -0.13672,-0.58008 l -0.0332,-1.12891 c -0.15951,-1.5267 -0.33137,-2.87109 -0.51367,-4.0332 -0.1595,-1.16211 -0.29622,-2.12956 -0.41015,-2.9043 -0.11393,-0.88868 -0.2155,-1.65299 -0.30664,-2.29101 -0.0684,-0.66081 -0.11394,-1.24088 -0.13672,-1.74219 -0.13672,-0.54687 -0.22787,-0.85548 -0.27344,-0.92383 -0.0456,-0.0911 -0.0684,-0.2155 -0.0684,-0.375 0,-0.27344 0.0332,-0.69596 0.10156,-1.26562 0.0684,-0.56966 0.10352,-0.97982 0.10352,-1.23047 -0.13672,-0.56966 -0.25065,-1.11655 -0.3418,-1.64063 0.0911,-1.02539 0.15951,-1.719391 0.20508,-2.083981 0.0456,-0.36458 0.0684,-0.61523 0.0684,-0.75195 0,-0.22787 -0.0788,-0.59245 -0.23828,-1.09375 -0.15951,-0.5013 -0.24024,-0.86589 -0.24024,-1.09375 0,-0.20508 0.0807,-0.47853 0.24024,-0.82032 0.1595,-0.36459 0.26107,-0.6276 0.30664,-0.7871 0.0456,-1.34441 0.11393,-2.5625 0.20508,-3.65626 0.0911,-1.09374 0.18229,-2.06315 0.27343,-2.90624 0.0228,-0.29624 0.0104,-0.62565 -0.0351,-0.99024 -0.0228,-0.36458 -0.0892,-0.74154 -0.20313,-1.12891 -0.13672,-0.45573 -0.31901,-0.79753 -0.54687,-1.02539 -0.20508,-0.25066 -0.43295,-0.375 -0.6836,-0.375 z m -211.37306,3.21485 c -0.36458,0.22786 -0.73958,0.44531 -1.12695,0.65039 -0.29622,-0.0228 -0.61524,-0.0684 -0.95704,-0.13672 -0.3418,0 -0.75194,0.19271 -1.230464,0.58008 -0.47852,0.36458 -0.83268,0.55924 -1.06055,0.58203 -1.11653,0.20508 -1.94726,0.51172 -2.49414,0.92187 -0.54687,0.38737 -0.82031,0.87826 -0.82031,1.47071 0,0.29622 0.17187,0.6608 0.51367,1.09375 0.36458,0.41015 0.54687,0.75195 0.54687,1.02539 0,0.75195 -0.60482,2.0612 -1.8125,3.92969 -1.20769,1.845691 -3.01822,4.250651 -5.43359,7.212891 -2.36979,2.91666 -4.30859,5.18294 -5.8125,6.80078 -1.5039,1.61784 -2.59765,2.55208 -3.28125,2.80273 -0.22786,-0.36458 -0.339844,-0.69401 -0.339844,-0.99023 0,-0.22787 0.0332,-0.5013 0.101563,-0.82032 0.06836,-0.31901 0.147141,-0.67317 0.238281,-1.06054 0.13672,-0.43294 0.227867,-0.79753 0.273437,-1.09375 0.06836,-0.31901 0.126295,-0.58008 0.171875,-0.78516 0.54687,-2.57488 1.048177,-4.80794 1.503907,-6.69922 0.45573,-1.89127 0.865888,-3.46354 1.230468,-4.716791 0.02279,-0.11394 0.08073,-0.33138 0.171875,-0.65039 0.09115,-0.31901 0.2155,-0.72917 0.375,-1.23047 0.13672,-0.41016 0.227868,-0.76237 0.273438,-1.0586 0.04558,-0.31901 0.06836,-0.56966 0.06836,-0.75195 0,-0.41016 -0.227864,-1.04818 -0.683594,-1.91406 -0.45573,-0.86589 -0.830733,-1.27604 -1.126953,-1.23047 -0.27344,0.20508 -0.51367,0.38737 -0.71875,0.54687 -0.18229,0.15951 -0.341795,0.28386 -0.478515,0.375 -1.02539,0.31901 -1.868487,0.79753 -2.529297,1.43555 -0.6608,0.61524 -1.14974,1.38997 -1.46875,2.32422 -0.02278,0.13672 -0.0931,0.70638 -0.207031,1.70898 -0.11393,1.00261 -0.271483,2.415371 -0.476563,4.238281 -0.36458,3.09896 -0.683591,5.67382 -0.957031,7.72461 -0.25065,2.028 -0.468101,3.56706 -0.650391,4.61524 l 0.513672,1.94726 c -0.04557,0.31901 -0.126294,0.59245 -0.240234,0.82032 -0.11393,0.22786 -0.205078,0.42252 -0.273438,0.58203 -0.06836,0.22786 -0.182287,0.8763 -0.341797,1.94726 -0.15951,1.07097 -0.341805,2.5293 -0.546875,4.37502 -0.22787,1.80013 -0.397788,3.17969 -0.511718,4.13672 -0.09115,0.95703 -0.136719,1.5267 -0.136719,1.70899 0,0.18229 0.0332,0.47851 0.101562,0.88867 0.06836,0.38737 0.101563,0.67122 0.101563,0.85351 0,0.27344 -0.05599,0.66081 -0.169922,1.16211 -0.11393,0.50131 -0.169922,0.86589 -0.169922,1.09375 0,0.66081 0.06641,1.1517 0.203125,1.47071 0.15951,0.29622 0.366538,0.44336 0.617188,0.44336 0.29623,-0.0456 0.615241,-0.11394 0.957031,-0.20508 0.27344,0.0911 0.648433,0.1595 1.126953,0.20508 0.45572,0 0.774741,-0.13672 0.957031,-0.41016 0.20507,-0.27344 0.306641,-0.70638 0.306641,-1.29883 0,-0.72916 0.103514,-1.83333 0.308594,-3.31445 0.20508,-1.48112 0.308593,-2.58724 0.308593,-3.31641 0,-0.11393 -0.03516,-0.29622 -0.103515,-0.54687 -0.04557,-0.27344 -0.06836,-0.46615 -0.06836,-0.58008 0,-0.25065 0.06836,-0.63802 0.205078,-1.16211 0.159501,-0.52409 0.240235,-0.90104 0.240235,-1.12891 0.18229,-1.43556 0.364585,-2.56252 0.546875,-3.38283 0.20508,-0.8431 0.387375,-1.37956 0.546875,-1.60742 0.59245,0.88867 1.160161,1.76693 1.707031,2.63281 0.54688,0.86589 1.060543,1.71942 1.539063,2.56252 1.07096,1.80013 1.959635,3.22526 2.666015,4.27344 0.70638,1.02539 1.184897,1.67383 1.435547,1.94726 0.52409,0.54688 1.070965,1.09376 1.640623,1.64063 0.11394,0.18229 0.20508,0.36458 0.27344,0.54687 0.0911,0.15951 0.16992,0.3086 0.23828,0.44532 0.52409,1.02539 1.1517,1.77734 1.88086,2.25586 0.75196,0.47851 1.59505,0.71679 2.5293,0.71679 0.43294,0 1.04818,-0.18229 1.8457,-0.54687 0.82031,-0.36458 1.82292,-0.95704 3.00781,-1.77735 1.11654,-0.75196 2.063164,-1.42317 2.837894,-2.01562 0.721,-0.55135 1.28771,-1.04928 1.73242,-1.50195 -0.006,0.16981 -0.0197,0.36051 -0.0586,0.61328 -0.52409,0.52409 -0.91146,1.07096 -1.16211,1.64062 -0.27343,0.54688 -0.41015,1.12696 -0.41015,1.74219 0,1.11654 0.26107,1.94922 0.78515,2.49609 0.52409,0.52409 1.33399,0.78516 2.42774,0.78516 0.1595,0 0.41015,-0.0788 0.75195,-0.23828 0.3418,-0.13672 0.75195,-0.33138 1.23047,-0.58203 0.75195,-0.41016 1.42319,-0.80795 2.01563,-1.19532 0.61524,-0.38736 1.15169,-0.77473 1.60742,-1.1621 0.22786,-0.22787 0.61523,-0.60482 1.16211,-1.12891 0.54687,-0.52409 1.2181,-1.19532 2.01562,-2.01563 0.59245,-0.47852 1.10612,-0.88867 1.53906,-1.23046 0.45573,-0.3418 0.83269,-0.62761 1.12891,-0.85547 0.18229,-0.20508 0.33984,-0.36459 0.47656,-0.47852 l 0.37696,-0.375 c 0.18229,0.22787 0.29622,0.45573 0.34179,0.68359 0.0684,0.20507 0.10157,0.41016 0.10157,0.61524 0.13672,1.70898 0.60481,2.98502 1.40234,3.82812 0.79752,0.84309 1.93685,1.26368 3.41797,1.26368 0.63802,0 1.27604,-0.12435 1.91406,-0.375 0.63802,-0.27344 1.29883,-0.67318 1.98242,-1.19727 0.56966,-0.45573 1.10612,-0.93424 1.60742,-1.43555 0.52409,-0.52408 1.04623,-1.02539 1.57032,-1.5039 -0.002,-0.006 -0.006,-0.0152 -0.008,-0.0215 0.62516,-0.51337 1.16667,-0.9517 1.61523,-1.31054 0.45573,-0.36459 0.8099,-0.63802 1.06055,-0.82032 l 0.13672,-0.0684 c 0.22787,0 0.38541,0.16993 0.47656,0.51172 0.11393,0.3418 0.17188,0.85547 0.17188,1.53907 -0.0684,0.47851 -0.14714,0.91145 -0.23829,1.29882 0.13672,0.41016 0.24871,0.72917 0.33985,0.95704 -0.0684,0.27343 -0.12435,0.51171 -0.16992,0.71679 -0.0228,0.20508 -0.0332,0.37696 -0.0332,0.51367 0,0.72917 0.1927,1.27605 0.58007,1.64063 0.38737,0.3418 0.95704,0.51172 1.70899,0.51172 1.02539,0 1.92447,-0.22787 2.69921,-0.6836 0.79753,-0.47851 1.44792,-1.20768 1.94922,-2.1875 0.75195,-0.34179 1.51433,-0.83072 2.28907,-1.46875 0.77474,-0.6608 1.53905,-1.48112 2.29101,-2.46093 0.56966,-0.54688 1.09376,-1.02539 1.57227,-1.43555 0.5013,-0.41016 0.95702,-0.71875 1.36718,-0.92383 0.0911,0.27344 0.13672,0.49089 0.13672,0.65039 0.0228,0.13672 0.056,0.25065 0.10157,0.3418 -0.13672,1.0026 -0.28385,1.93685 -0.44336,2.80273 -0.1595,0.8431 -0.35221,1.59506 -0.58008,2.25586 -0.5013,1.13933 -0.93619,2.12956 -1.30078,2.97266 -0.34179,0.8431 -0.6608,1.56185 -0.95703,2.1543 -0.0684,0.25065 -0.1595,0.5013 -0.27344,0.75195 -0.0911,0.25065 -0.1823,0.46615 -0.27344,0.64844 -0.54688,0.59244 -1.20573,1.31119 -1.98047,2.15429 -0.77474,0.86589 -1.6302,1.84571 -2.56445,2.93946 -1.25325,1.48112 -2.23307,2.6888 -2.93945,3.62304 -0.68359,0.957039 -1.10613,1.640629 -1.26563,2.050779 -0.22787,0.20508 -0.43098,0.38737 -0.61328,0.54688 -0.1595,0.15951 -0.2858,0.29622 -0.37695,0.41016 0,0.11393 -0.0456,0.31901 -0.13672,0.61523 l -1.02539,0.88867 c -0.36458,0.66081 -0.76237,1.29883 -1.19531,1.91406 -0.29622,0.38737 -0.50326,0.75195 -0.61719,1.09375 -0.11393,0.34179 -0.16992,0.62566 -0.16992,0.85352 0,0.43294 0.11392,0.75195 0.34179,0.95703 0.22786,0.20508 0.59245,0.3086 1.09375,0.30859 1.3444,0 2.72396,-0.5013 4.13672,-1.5039 1.41277,-1.0026 2.90429,-2.54168 4.47656,-4.61524 0.45573,-0.63803 1.18489,-1.74218 2.1875,-3.314449 1.02539,-1.57226 2.30144,-3.61263 3.82813,-6.11914 1.02539,-1.66341 2.40495,-3.33724 4.13672,-5.02344 1.75456,-1.70898 3.8509,-3.43033 6.28906,-5.16211 0.43294,-0.29622 0.77279,-0.56966 1.02344,-0.82031 l 0.68359,-0.68359 -1.36719,-3.14453 c -1.43555,1.43554 -2.63086,2.58724 -3.58789,3.45312 -0.93425,0.8431 -1.64063,1.37761 -2.11914,1.60547 l -0.23828,-0.30664 c 0.47851,-1.41276 0.92187,-2.70117 1.33203,-3.86328 0.43294,-1.1849 0.8431,-2.19792 1.23047,-3.04102 0.45573,-1.3444 0.8431,-2.50653 1.16211,-3.48635 0.31901,-1.0026 0.5573,-1.8457 0.7168,-2.52929 l 0.0703,-0.41016 c 0.0456,-0.1595 0.0664,-0.31901 0.0664,-0.47851 0,-0.38737 -0.13673,-0.67318 -0.41016,-0.85547 -0.25066,-0.20508 -0.63607,-0.30664 -1.16016,-0.30664 -0.77474,0 -1.43749,0.11393 -1.98437,0.34179 -0.52408,0.22787 -0.93425,0.54687 -1.23047,0.95703 -0.72917,0.79752 -1.38803,1.48112 -1.98047,2.05079 -0.56967,0.56966 -1.08333,1.0358 -1.53906,1.40039 -1.18489,1.16213 -2.22071,2.18752 -3.10938,3.07619 -0.86589,0.88867 -1.59505,1.60742 -2.1875,2.15429 -0.72917,0.61523 -1.39192,1.13933 -1.98437,1.57227 -0.56966,0.41016 -1.07097,0.75195 -1.50391,1.02539 l -0.16992,0.0332 c -0.13672,0 -0.26302,-0.0456 -0.37695,-0.13671 -0.0911,-0.0911 -0.13672,-0.25065 -0.13672,-0.47852 0,-1.02539 0.34374,-2.5293 1.02734,-4.51172 0.68359,-1.98244 1.02344,-3.41799 1.02344,-4.30666 0,-0.59245 -0.15755,-1.02539 -0.47656,-1.29883 -0.29622,-0.27343 -0.71876,-0.41015 -1.26563,-0.41015 -0.43295,0 -0.86589,0.11393 -1.29883,0.34179 -0.43294,0.22787 -0.87826,0.54688 -1.33398,0.95703 -0.75196,0.79753 -1.40039,1.49349 -1.94726,2.08594 -0.54688,0.56966 -0.99219,1.05862 -1.33399,1.46877 -0.52408,0.5013 -1.33203,1.13932 -2.42578,1.91406 -1.07096,0.77473 -1.8685,1.43555 -2.39258,1.98243 0.0163,0.0122 0.0274,0.0352 0.043,0.0488 -0.143,0.13588 -0.2924,0.26088 -0.45312,0.36133 -0.15951,0.11394 -0.28582,0.19466 -0.37696,0.24024 l -0.47656,0.54687 c -0.13671,0.18229 -0.2858,0.375 -0.44531,0.58008 -0.20508,0.18229 -0.41017,0.33138 -0.61524,0.44531 -0.18229,0.11394 -0.37499,0.16992 -0.58007,0.16992 -0.68359,0 -1.24284,-0.28385 -1.67578,-0.85351 -0.41016,-0.59245 -0.60483,-1.25326 -0.58204,-1.98242 0,-1.04818 0.0247,-2.14193 0.0703,-3.28125 -0.0456,-0.75198 -0.19466,-1.31122 -0.44531,-1.6758 -0.25065,-0.38737 -0.61524,-0.58008 -1.09375,-0.58008 -0.77474,0 -1.61783,0.30664 -2.52929,0.92187 -0.91146,0.59245 -1.89129,1.5163 -2.93946,2.76955 -0.20508,0.13672 -0.38736,0.25066 -0.54687,0.3418 l -0.47852,0.27344 c -0.20508,0.13672 -0.55925,0.43294 -1.06055,0.88867 -0.47852,0.43294 -1.10416,1.0026 -1.8789,1.70898 -0.6608,0.63803 -1.26562,1.14974 -1.8125,1.53711 -0.54687,0.38737 -1.06901,0.66081 -1.57031,0.82032 l -0.24024,-0.30664 c 0.6608,-0.93425 1.19726,-1.6862 1.60742,-2.25586 0.41015,-0.56966 0.69402,-0.93425 0.85352,-1.09375 1.27604,-1.11654 2.28906,-2.07357 3.04101,-2.8711 0.77474,-0.79752 1.27605,-1.44793 1.50391,-1.94924 0.52409,-0.38737 0.94662,-0.72916 1.26563,-1.02539 0.31901,-0.29622 0.5345,-0.5013 0.64843,-0.61523 0.1595,-0.22787 0.35416,-0.48893 0.58203,-0.78516 0.70638,-0.52409 1.32162,-1.04817 1.84571,-1.57226 0.52409,-0.54688 0.96939,-1.06056 1.33398,-1.53907 0.6608,-0.50131 1.27408,-0.95703 1.84375,-1.36718 0.36458,-0.25065 0.6276,-0.55729 0.78711,-0.92188 0.18229,-0.36458 0.27344,-0.78711 0.27344,-1.26562 0,-0.45573 -0.14713,-0.80795 -0.44336,-1.0586 -0.27343,-0.25065 -0.70833,-0.37695 -1.30078,-0.37695 -1.07096,0 -2.39259,0.49089 -3.96485,1.4707 -1.54948,0.97982 -3.36002,2.44857 -5.43359,4.40821 -0.45572,0.43294 -0.87825,0.78711 -1.26562,1.06054 -0.38737,0.25065 -0.70639,0.44336 -0.95704,0.58008 -0.52409,0.45573 -0.95507,0.85547 -1.29687,1.19727 -0.34179,0.34179 -0.60481,0.62565 -0.78711,0.85351 -0.34179,0.15951 -0.6504,0.3418 -0.92383,0.54688 -0.25065,0.20508 -0.45378,0.45573 -0.61328,0.75195 -0.20508,0.36458 -0.38736,0.65041 -0.54687,0.85549 -0.15951,0.18229 -0.29622,0.32943 -0.41016,0.44336 l -3.11133,2.05085 c -0.22787,0.38737 -0.42058,0.71875 -0.58008,0.99219 -0.18229,0.25065 -0.319,0.42057 -0.41015,0.51172 0.005,0.0109 0.009,0.0204 0.0137,0.0312 -0.0589,0.14527 -0.39874,0.41744 -1.04102,0.82422 -0.660814,0.41014 -1.091794,0.76237 -1.296874,1.05859 -0.93424,0.47852 -1.68816,0.85546 -2.25782,1.12891 -0.56966,0.25065 -0.9095,0.375 -1.02343,0.375 -0.70638,0 -1.4935,-0.46616 -2.35938,-1.4004 -0.8431,-0.95704 -1.76693,-2.39257 -2.76953,-4.30664 -0.59245,-1.27604 -1.19532,-2.54168 -1.81055,-3.79494 -0.59245,-1.25325 -1.16211,-2.53971 -1.70898,-3.86133 -0.29623,-0.63802 -0.63802,-1.33398 -1.02539,-2.08593 0,-0.27344 0.136716,-0.59245 0.410156,-0.95704 0.27344,-0.38736 0.683589,-0.84309 1.230469,-1.36718 1.321605,-1.23047 2.802725,-2.75716 4.443355,-4.58008 1.64062,-1.82293 3.44075,-3.94206 5.40039,-6.35742 0.88867,-1.11654 1.65299,-2.14193 2.29102,-3.076171 0.638024,-0.93425 1.139334,-1.78776 1.503914,-2.5625 0.18229,-0.22787 0.36457,-0.43295 0.54687,-0.61524 0.18229,-0.18229 0.35221,-0.3418 0.51172,-0.47851 0.54687,-0.50131 0.94466,-1.16211 1.19531,-1.98243 0.27343,-0.84309 0.41016,-1.8125 0.41016,-2.90625 0,-0.54687 -0.0788,-1.02539 -0.23828,-1.43554 -0.13672,-0.43295 -0.37695,-0.82031 -0.71875,-1.16211 z m 98.13088,5.19531 c -0.18229,0 -0.36459,0.0579 -0.54688,0.17188 -0.15951,0.11393 -0.29622,0.27343 -0.41016,0.47851 -0.45572,0.82031 -0.90104,1.69662 -1.33398,2.63086 -0.43295,0.91146 -0.80794,1.90365 -1.12695,2.97461 -0.0911,0.364581 -0.21745,0.671221 -0.37696,0.921871 -0.13672,0.25066 -0.2487,0.45573 -0.33984,0.61524 -0.22787,0.41016 -0.57161,1.16211 -1.02734,2.25586 -0.45573,1.07096 -1.01302,2.47331 -1.67383,4.20508 -0.68359,1.82292 -1.23047,3.30403 -1.64063,4.44336 -0.41016,1.13932 -0.68359,1.97005 -0.82031,2.49414 -0.45573,0.52409 -0.95702,1.28841 -1.5039,2.29101 -0.54688,1.00261 -1.14974,2.22071 -1.81055,3.65625 -0.5013,1.02539 -1.01497,1.93685 -1.53906,2.73438 -0.5013,0.77476 -1.07097,1.42515 -1.70899,1.94924 -0.3418,0.31901 -0.63801,0.61523 -0.88867,0.88867 -0.25065,0.25065 -0.44531,0.48893 -0.58203,0.71679 -0.11393,0.27344 -0.21549,0.47852 -0.30664,0.61524 -0.0911,0.11393 -0.1823,0.20508 -0.27344,0.27344 0.0163,0.0122 0.0274,0.0352 0.043,0.0488 -0.143,0.13588 -0.29241,0.26088 -0.45313,0.36133 -0.15951,0.11394 -0.28581,0.19466 -0.37695,0.24024 l -0.47656,0.54687 c -0.13672,0.18229 -0.2858,0.375 -0.44531,0.58008 -0.20508,0.18229 -0.41016,0.33138 -0.61524,0.44531 -0.18229,0.11394 -0.375,0.16992 -0.58008,0.16992 -0.6836,0 -1.24284,-0.28385 -1.67578,-0.85351 -0.41016,-0.59245 -0.60482,-1.25326 -0.58203,-1.98242 0,-1.04818 0.0247,-2.14193 0.0703,-3.28125 -0.0456,-0.75198 -0.19466,-1.31122 -0.44531,-1.6758 -0.25065,-0.38737 -0.61524,-0.58008 -1.09375,-0.58008 -0.77474,0 -1.61784,0.30664 -2.5293,0.92187 -0.91146,0.59245 -1.8913,1.5163 -2.93947,2.76955 -0.20508,0.13672 -0.38736,0.25066 -0.54687,0.3418 l -0.47852,0.27344 c -0.20508,0.13672 -0.55925,0.43294 -1.06055,0.88867 -0.47852,0.43294 -1.10416,1.0026 -1.8789,1.70898 -0.6608,0.63803 -1.26562,1.14974 -1.8125,1.53711 -0.54687,0.38737 -1.06902,0.66081 -1.57032,0.82032 l -0.24025,-0.30662 c 0.6608,-0.93425 1.19726,-1.6862 1.60742,-2.25586 0.41015,-0.56966 0.69402,-0.93425 0.85352,-1.09375 1.27604,-1.11654 2.28906,-2.07357 3.04101,-2.8711 0.77474,-0.79752 1.27604,-1.44793 1.50391,-1.94924 0.52408,-0.38737 0.94661,-0.72916 1.26562,-1.02539 0.31901,-0.29622 0.53451,-0.5013 0.64844,-0.61523 0.1595,-0.22787 0.35416,-0.48893 0.58203,-0.78516 0.7064,-0.52409 1.32164,-1.04817 1.84573,-1.57226 0.52409,-0.54688 0.96939,-1.06056 1.33398,-1.53907 0.6608,-0.50131 1.27408,-0.95703 1.84375,-1.36718 0.36458,-0.25065 0.6276,-0.55729 0.78711,-0.92188 0.18229,-0.36458 0.27344,-0.78711 0.27344,-1.26562 0,-0.45573 -0.14713,-0.80795 -0.44336,-1.0586 -0.27343,-0.25065 -0.70833,-0.37695 -1.30078,-0.37695 -1.07096,0 -2.39259,0.49089 -3.96485,1.4707 -1.5495,0.97982 -3.36005,2.44857 -5.43361,4.40821 -0.45573,0.43294 -0.87826,0.78711 -1.26563,1.06054 -0.38737,0.25065 -0.70638,0.44336 -0.95703,0.58008 -0.52409,0.45573 -0.95507,0.85547 -1.29687,1.19727 -0.34179,0.34179 -0.60481,0.62565 -0.78711,0.85351 -0.34179,0.15951 -0.6504,0.3418 -0.92383,0.54688 -0.25065,0.20508 -0.45377,0.45573 -0.61328,0.75195 -0.20507,0.36458 -0.38737,0.65041 -0.54688,0.85549 -0.15951,0.18229 -0.29621,0.32943 -0.41015,0.44336 l -3.11133,2.05078 c -0.22787,0.38737 -0.42058,0.71875 -0.58008,0.99219 -0.18229,0.25065 -0.319,0.42057 -0.41015,0.51172 0.20508,0.45573 0.39778,0.88867 0.58007,1.29882 0.1595,0.38737 0.30664,0.74154 0.44336,1.06055 0.0911,0.15951 0.16146,0.30664 0.20703,0.44336 0.0684,0.11393 0.10157,0.22787 0.10157,0.3418 0,0.18229 -0.0228,0.42252 -0.0684,0.71875 -0.52409,0.52409 -0.91146,1.07096 -1.16211,1.64062 -0.27343,0.54688 -0.41016,1.12696 -0.41016,1.74219 0,1.11654 0.26108,1.94922 0.78516,2.49609 0.52409,0.52409 1.33398,0.78516 2.42773,0.78516 0.1595,0 0.41016,-0.0788 0.75196,-0.23828 0.3418,-0.13672 0.75194,-0.33138 1.23046,-0.58203 0.75195,-0.41016 1.42318,-0.80795 2.01563,-1.19532 0.61523,-0.38736 1.15169,-0.77473 1.60742,-1.1621 0.22786,-0.22787 0.61523,-0.60482 1.16211,-1.12891 0.54687,-0.52409 1.21811,-1.19532 2.01563,-2.01563 0.59245,-0.47852 1.10612,-0.88867 1.53906,-1.23046 0.45573,-0.3418 0.83268,-0.62761 1.1289,-0.85547 0.18229,-0.20508 0.33985,-0.36459 0.47657,-0.47852 l 0.37699,-0.375 c 0.18229,0.22787 0.29623,0.45573 0.3418,0.68359 0.0684,0.20507 0.10156,0.41016 0.10156,0.61524 0.13671,1.70898 0.60483,2.98502 1.40236,3.82812 0.79752,0.84309 1.93685,1.26368 3.41797,1.26368 0.63802,0 1.27604,-0.12435 1.91406,-0.375 0.63802,-0.27344 1.29884,-0.67318 1.98243,-1.19727 0.56966,-0.45573 1.10612,-0.93424 1.60742,-1.43555 0.52409,-0.52408 1.04622,-1.02539 1.57031,-1.5039 -0.003,-0.009 -0.009,-0.0222 -0.0117,-0.0312 0.34474,-0.47507 0.57383,-0.80451 0.66211,-0.95899 0.11393,-0.18229 0.21549,-0.30859 0.30664,-0.37695 0.61523,-0.72917 1.15169,-1.3444 1.60742,-1.8457 0.45573,-0.5013 0.83074,-0.93425 1.12696,-1.29883 l 0.24023,0.3418 c 0,0.36458 -0.0456,0.79752 -0.13672,1.29882 -0.0911,0.47852 -0.21745,1.03775 -0.37695,1.67578 -0.41016,1.34441 -0.7168,2.63087 -0.92188,3.86133 -0.18229,1.23047 -0.27343,2.39258 -0.27343,3.48633 0,1.07097 0.22786,1.86849 0.68359,2.39258 0.45573,0.52409 1.13932,0.78711 2.05078,0.78711 0.59245,0 1.08138,-0.21745 1.46875,-0.65039 0.41015,-0.41016 0.77474,-0.8431 1.09375,-1.29883 0.31901,-0.29622 0.60482,-0.55729 0.85547,-0.78516 0.25065,-0.22786 0.43295,-0.42252 0.54688,-0.58203 0.41016,-0.5013 0.80794,-0.97981 1.19531,-1.43554 0.41016,-0.47852 0.82032,-0.96745 1.23047,-1.46875 0.63802,-0.77474 1.37955,-1.54948 2.22265,-2.32422 0.11393,0 0.97982,0.70638 2.59766,2.11914 1.64062,1.38997 2.80274,2.08398 3.48633,2.08398 0.66081,0 1.32162,-0.14713 1.98242,-0.44336 0.66081,-0.31901 1.32161,-0.79752 1.98242,-1.43554 0.59244,-0.50131 1.14974,-1.01498 1.67383,-1.53907 0.54687,-0.52408 1.11849,-1.04817 1.71094,-1.57226 l -1.36719,-3.14453 c -0.34179,0.22786 -0.6608,0.47851 -0.95703,0.75195 -0.27343,0.25065 -0.55924,0.49089 -0.85547,0.71875 -0.38736,0.31901 -0.72916,0.55729 -1.02539,0.7168 -0.27343,0.13672 -0.52408,0.20507 -0.75195,0.20507 -0.68359,0 -1.54948,-0.60286 -2.59766,-1.81054 -1.04817,-1.23047 -1.57227,-2.14193 -1.57227,-2.73438 0,-0.8431 0.97983,-2.59767 2.93946,-5.26369 1.95964,-2.66601 2.93945,-4.8763 2.93945,-6.63086 0,-0.68359 -0.11394,-1.19726 -0.3418,-1.53906 -0.22787,-0.3418 -0.60481,-0.51172 -1.1289,-0.51172 -0.22786,0 -0.56771,0.30664 -1.02344,0.92187 -0.45572,0.59245 -1.02735,1.4935 -1.71094,2.70118 -1.23047,2.27864 -2.2207,3.99804 -2.97265,5.16015 -0.72917,1.16211 -1.18489,1.77735 -1.36719,1.84571 -1.43554,0.34179 -2.41537,0.80989 -2.93945,1.40236 -0.5241,0.59245 -0.86589,1.64063 -1.0254,3.14453 l -0.10156,0.99024 c -0.45573,1.0026 -0.91146,1.92643 -1.36719,2.76953 -0.43294,0.82031 -0.87826,1.55989 -1.33398,2.2207 -0.0911,0.25065 -0.22787,0.44531 -0.41016,0.58203 -0.15951,0.13672 -0.3522,0.20508 -0.58007,0.20508 -0.11393,0 -0.20508,-0.0352 -0.27344,-0.10352 -0.0456,-0.0684 -0.0703,-0.18229 -0.0703,-0.34179 0,-0.22787 0.0911,-0.6836 0.27343,-1.36719 0.18229,-0.70638 0.45574,-1.66341 0.82032,-2.87109 0.38737,-1.25326 0.76431,-2.5293 1.1289,-3.82813 0.36458,-1.29883 0.74154,-2.57489 1.12891,-3.82814 0.47852,-1.61784 0.95507,-3.05339 1.43359,-4.30665 0.47851,-1.25326 0.92384,-2.31184 1.33399,-3.17773 2.028,-3.85091 3.53189,-7.12174 4.51171,-9.81055 0.97982,-2.71158 1.47071,-4.830721 1.47071,-6.357421 0,-1.36718 -0.22787,-2.40299 -0.6836,-3.10937 -0.43294,-0.70638 -1.10611,-1.06055 -2.01757,-1.06055 z m 196.8789,5.33008 c -0.47851,0 -0.90104,0.056 -1.26562,0.16992 -0.36458,0.0911 -0.65886,0.21744 -0.88672,0.37695 -0.52409,0.61523 -0.97982,1.162111 -1.36719,1.640631 -0.63802,0.0684 -1.37956,0.62565 -2.22265,1.67383 -0.82032,1.02539 -1.23047,1.88086 -1.23047,2.56445 0,0.77474 0.0788,1.38998 0.23828,1.8457 0.18229,0.45573 0.42252,0.76237 0.71875,0.92188 0.3418,0 0.68359,0.0228 1.02539,0.0684 0.36458,0.0228 0.73958,0.0579 1.12695,0.10351 0.13672,0.0228 0.37696,-0.0352 0.71875,-0.17187 0.36459,-0.15951 0.80795,-0.42057 1.33203,-0.78516 0.50131,-0.29622 0.92383,-0.62761 1.26563,-0.99219 0.36458,-0.38737 0.65039,-0.83072 0.85547,-1.33203 0.0911,-0.22786 0.21549,-0.60481 0.375,-1.1289 0.18229,-0.52409 0.38737,-1.19531 0.61523,-2.01563 0.0912,-0.43294 0.20508,-0.9694 0.3418,-1.60742 0,-0.432941 -0.13672,-0.762381 -0.41016,-0.990231 -0.25065,-0.22787 -0.6608,-0.3418 -1.23047,-0.3418 z m -51.26953,9.193361 c -0.41015,0 -0.78712,0.0352 -1.12891,0.10351 -0.34179,0.0683 -0.64843,0.14713 -0.92187,0.23828 -0.29622,0.22786 -0.59245,0.43295 -0.88867,0.61524 -0.29622,0.18229 -0.56966,0.37695 -0.82031,0.58203 l -1.57227,1.91406 c -0.52409,0.61524 -1.02539,1.1849 -1.50391,1.70899 -0.56966,0.93424 -1.03776,1.77733 -1.40234,2.52929 -0.3418,0.75195 -0.61523,1.37761 -0.82031,1.87891 -0.18229,0.5013 -0.35221,0.96939 -0.51172,1.40234 -0.13672,0.43294 -0.24024,0.80795 -0.3086,1.12696 -0.0228,0.45573 -0.0684,0.91145 -0.13671,1.36718 -0.0684,0.43294 -0.13477,0.87826 -0.20313,1.33399 -0.6608,0.52409 -1.20768,1.03583 -1.64062,1.53713 -0.43295,0.47852 -0.78711,0.95703 -1.06055,1.43555 0.36458,0.75195 0.66081,1.37954 0.88867,1.88085 0.22787,0.5013 0.38737,0.92188 0.47852,1.26368 0.27344,-0.3418 0.52409,-0.59246 0.75195,-0.75196 0.22787,-0.1823 0.43293,-0.27343 0.61523,-0.27343 0.22786,0 0.43295,0.1263 0.61524,0.37695 0.18229,0.22787 0.37695,0.59245 0.58203,1.09375 0.25065,0.61524 0.48893,1.14974 0.7168,1.60547 0.22786,0.43294 0.45573,0.76431 0.68359,0.99219 0.43294,0.47851 0.9694,0.84309 1.60742,1.09374 0.66081,0.25066 1.41081,0.375 2.25391,0.375 0.63802,0 1.1849,-0.0456 1.64062,-0.13671 0.47852,-0.11393 0.90105,-0.28386 1.26563,-0.51172 0.88867,0 1.85807,-0.31901 2.90625,-0.95703 1.07096,-0.66081 2.25586,-1.63021 3.55469,-2.90625 -0.13672,-0.38737 -0.31901,-0.8431 -0.54688,-1.36719 -0.22786,-0.52409 -0.49088,-1.11655 -0.78711,-1.77734 -0.25065,0.20508 -0.5013,0.37695 -0.75195,0.51367 -0.25065,0.11393 -0.43295,0.20507 -0.54688,0.27343 -0.56967,0.31901 -1.22005,0.59245 -1.94922,0.82032 -0.72917,0.22786 -1.53711,0.375 -2.42578,0.44336 -0.54688,-0.11393 -1.02539,-0.23828 -1.43554,-0.375 -0.38737,-0.13672 -0.67123,-0.27344 -0.85352,-0.41016 -0.31901,-0.18229 -0.57162,-0.45573 -0.7539,-0.82031 -0.15952,-0.36458 -0.23829,-0.78711 -0.23829,-1.26563 0,-0.27343 0.058,-0.52408 0.17188,-0.75195 0.11393,-0.25065 0.25064,-0.45574 0.41015,-0.61523 1.89128,-1.84573 3.39518,-3.48635 4.51172,-4.9219 1.11653,-1.43554 1.83334,-2.69922 2.15235,-3.79297 l 0.30859,-1.09375 c 0.15951,-0.54687 0.27149,-0.94661 0.33984,-1.19726 0.0667,-0.18341 0.10907,-0.26033 0.12696,-0.23633 -0.0862,-0.51893 -0.16317,-1.00186 -0.22852,-1.4375 -0.13671,-0.52409 -0.2858,-0.9694 -0.44531,-1.33399 -0.13672,-0.36458 -0.28385,-0.63802 -0.44336,-0.82031 -0.22786,-0.27343 -0.52409,-0.46614 -0.88867,-0.58008 -0.3418,-0.11393 -0.79753,-0.17187 -1.36719,-0.17187 z m 4.30664,17.77346 c 0.36459,0.75195 0.6608,1.37954 0.88867,1.88085 0.22786,0.5013 0.38737,0.92188 0.47852,1.26368 0.20508,-0.22787 0.35221,-0.43294 0.44336,-0.61524 l 0.20703,-0.41015 c 0.38737,-0.36459 0.72721,-0.69401 1.02344,-0.99024 0.31901,-0.29622 0.59245,-0.52409 0.82031,-0.68359 0.13672,-0.0684 0.39974,-0.29623 0.78711,-0.6836 0.38737,-0.38737 0.89909,-0.92382 1.53711,-1.60742 0.52409,-0.59246 0.9694,-1.02542 1.33398,-1.29885 0.38737,-0.27344 0.69597,-0.41015 0.92383,-0.41015 0.25065,0 0.43295,0.0456 0.54688,0.13672 0.11393,0.0911 0.16992,0.21745 0.16992,0.37695 0,0.15951 -0.0228,0.35221 -0.0684,0.58008 -0.0456,0.2051 -0.12435,0.45575 -0.23828,0.75197 -0.11393,0.31901 -0.21745,0.58203 -0.3086,0.78711 -0.0684,0.18229 -0.10156,0.32943 -0.10156,0.44336 -0.56966,1.91406 -1.07097,3.58984 -1.50391,5.02539 -0.43295,1.43555 -0.82226,2.63086 -1.16406,3.58789 l 0.20703,1.91406 c 0.0911,0.61524 0.59245,0.92383 1.50391,0.92383 0.45573,0 0.86589,-0.0579 1.23047,-0.17187 0.38737,-0.0911 0.72721,-0.26107 1.02344,-0.51172 l 0.89062,-0.82032 0.88672,-0.88867 c 1.16211,-1.1849 2.13151,-2.21028 2.90625,-3.07617 0.77474,-0.86588 1.32161,-1.57226 1.64062,-2.11914 0.1595,-0.29622 0.46615,-0.55924 0.92188,-0.78711 0.45573,-0.22786 1.19727,-0.79752 2.22266,-1.70898 0.47851,-0.43294 0.92187,-0.78517 1.33203,-1.0586 0.43294,-0.27344 0.86784,-0.47851 1.30078,-0.61523 l 0.30664,0.10156 c 0.5013,0.66081 0.93425,1.24284 1.29883,1.74414 0.38737,0.47852 0.72917,0.86589 1.02539,1.16211 0.36458,0.72917 0.68359,1.34439 0.95703,1.8457 0.27344,0.47851 0.5013,0.80795 0.68359,0.99024 0.3418,0.45573 0.75196,0.79753 1.23047,1.02539 0.47852,0.22787 0.97982,0.3418 1.50391,0.3418 0.45573,0 0.91146,-0.0911 1.36719,-0.27344 0.45573,-0.20508 0.94661,-0.54687 1.4707,-1.02539 0.38737,-0.31901 0.78516,-0.64845 1.19531,-0.99024 0.41016,-0.3418 0.80794,-0.67317 1.19531,-0.99218 l -0.01,-0.0234 c 0.87786,-0.96605 1.62293,-1.69001 2.23242,-2.16406 0.61524,-0.5013 1.10417,-0.75196 1.46875,-0.75196 0.13672,0 0.3086,0.13672 0.51367,0.41016 0.20508,0.25065 0.44336,0.63802 0.7168,1.16211 0.22786,0.3418 0.4349,0.63802 0.61719,0.88867 0.18229,0.25065 0.31901,0.4681 0.41015,0.65039 0.75196,2.1875 1.43554,3.51953 2.05078,3.99805 0.61523,0.47852 1.95769,0.71875 4.03125,0.71875 0.3418,0 0.8431,-0.15951 1.50391,-0.47852 0.66081,-0.34179 1.46029,-0.85546 2.39453,-1.53906 0.8431,-0.61523 1.55989,-1.14974 2.15235,-1.60547 0.59568,-0.46332 1.06702,-0.872 1.42773,-1.22851 -0.005,0.16299 -0.0531,0.42603 -0.16211,0.81836 -0.11393,0.41014 -0.17188,0.70638 -0.17188,0.88867 0,0.66081 0.0456,1.21809 0.13672,1.67383 0.0684,0.45573 0.20508,0.84309 0.41016,1.1621 0.15951,0.29622 0.41016,0.61524 0.75195,0.95704 0.3418,0.31901 0.76236,0.6608 1.26367,1.02539 0.47851,0.34179 1.06055,0.74153 1.74415,1.19726 0.22786,0.11394 0.51172,0.20508 0.85351,0.27344 0.3418,0.0684 0.73111,0.10156 1.16406,0.10156 1.93684,0 3.65625,-0.29622 5.16016,-0.88867 1.52669,-0.56966 2.86068,-1.42318 4,-2.5625 0.25065,-0.25065 0.55729,-0.52409 0.92188,-0.82031 1.11653,-0.45573 2.10677,-1.03776 2.97265,-1.74414 0.86589,-0.72917 1.72135,-1.43555 2.56445,-2.11914 0,-0.11393 -0.45572,-1.16211 -1.36718,-3.14453 -0.56966,0.5013 -1.06055,0.94661 -1.47071,1.33398 -0.38736,0.38737 -0.69401,0.72917 -0.92187,1.02539 -0.18229,0.15951 -0.36459,0.28386 -0.54688,0.375 -0.15951,0.0684 -0.29622,0.13672 -0.41015,0.20508 -0.79753,0.52409 -1.60547,1.03776 -2.42578,1.53906 -0.79753,0.5013 -1.58464,0.97982 -2.35938,1.43555 -0.68359,0.20508 -1.30924,0.375 -1.87891,0.51172 -0.54687,0.11393 -0.99218,0.24023 -1.33398,0.37695 -0.59245,-0.1595 -1.09376,-0.31902 -1.50391,-0.47852 -0.38737,-0.15951 -0.69596,-0.319 -0.92382,-0.47851 -0.31901,-0.22786 -0.55729,-0.52409 -0.7168,-0.88867 -0.1595,-0.38737 -0.24024,-0.8431 -0.24023,-1.36719 0,-0.68359 0.0579,-1.28841 0.17187,-1.8125 0.13672,-0.52409 0.319,-1.0026 0.54687,-1.43555 0.1595,-0.22786 0.44532,-0.52408 0.85547,-0.88867 0.41016,-0.38737 0.92188,-0.82031 1.53711,-1.29883 1.34441,-1.04819 2.403,-1.87892 3.17774,-2.49416 0.79752,-0.63802 1.28841,-1.07096 1.4707,-1.29883 0.5013,-0.22786 1.00261,-0.47851 1.50391,-0.75195 0.5013,-0.27344 1.0026,-0.52409 1.5039,-0.75195 0.75196,-0.43294 1.30925,-0.90105 1.67383,-1.40235 0.38737,-0.52409 0.58203,-1.11653 0.58203,-1.77734 l 0,-1.87891 c -0.0456,-0.27343 -0.16992,-0.5013 -0.375,-0.68359 -0.18229,-0.18229 -0.43489,-0.27344 -0.7539,-0.27344 -0.82031,0 -1.88933,0.31901 -3.21094,0.95703 -1.29883,0.63803 -2.18945,1.26368 -2.66797,1.87891 -0.68359,0.29623 -1.41276,0.69596 -2.1875,1.19727 -0.77474,0.4785 -1.54948,1.05859 -2.32422,1.74218 -1.3444,1.13933 -2.73242,2.32422 -4.16797,3.55469 -0.34179,0.27344 -0.70638,0.52409 -1.09375,0.75195 -0.36458,0.22787 -0.71875,0.46809 -1.06054,0.71875 -0.54688,0.45574 -0.96746,0.85354 -1.26368,1.19534 -0.29623,0.34179 -0.45768,0.63802 -0.48046,0.88867 l -0.30665,0.27344 c 0.004,0.007 0.006,0.0129 0.01,0.0195 -0.35742,0.29049 -0.72426,0.59196 -1.10352,0.90429 -0.36459,0.29623 -0.71874,0.59244 -1.06054,0.88868 -0.45573,0.36457 -0.89909,0.62565 -1.33203,0.78515 -0.43295,0.13672 -0.85547,0.20508 -1.26563,0.20508 -0.34179,0 -0.62565,-0.0456 -0.85351,-0.13672 -0.22787,-0.11393 -0.39974,-0.28385 -0.51368,-0.51172 -0.11393,-0.13671 -0.28386,-0.6608 -0.51171,-1.57226 -0.22787,-0.93425 -0.42254,-1.63021 -0.58204,-2.08594 -0.0911,-0.72917 -0.20312,-1.44599 -0.33984,-2.15237 -0.13672,-0.72917 -0.28581,-1.44791 -0.44531,-2.15429 -0.18229,-0.79753 -0.54688,-1.38998 -1.09375,-1.77735 -0.54688,-0.41016 -1.2181,-0.61523 -2.01563,-0.61523 -0.29622,0 -0.5944,0.0807 -0.89062,0.24023 -0.29623,0.1595 -0.55729,0.42058 -0.78516,0.78516 -0.59245,0.8431 -1.66341,1.94922 -3.21289,3.31641 -1.54948,1.3444 -2.63281,2.43817 -3.24805,3.28127 l -0.10156,0.34179 -0.20508,0.23829 c 0.006,0.004 0.01,0.013 0.0156,0.0176 -0.20055,0.21832 -0.42243,0.38538 -0.66602,0.4961 -0.22786,0.11393 -0.48893,0.16992 -0.78515,0.16992 -0.38737,0 -0.73959,-0.16992 -1.0586,-0.51172 -0.29622,-0.34179 -0.56966,-0.86589 -0.82031,-1.57227 -0.41015,-1.20771 -0.84505,-2.5189 -1.30078,-3.93166 -0.38737,-0.72917 -0.85352,-1.26368 -1.40039,-1.60546 -0.54688,-0.3418 -1.17448,-0.51368 -1.88086,-0.51368 -0.36458,0 -0.79557,0.0911 -1.29688,0.27344 -0.47851,0.18229 -1.02539,0.43294 -1.64062,0.75195 -0.54688,0.34179 -1.02734,0.67318 -1.4375,0.99219 -0.41016,0.31901 -0.76238,0.62565 -1.05859,0.92188 -0.20509,0.22786 -0.38737,0.44531 -0.54688,0.65039 -0.13672,0.20508 -0.25065,0.35221 -0.3418,0.44336 -0.41015,0.31901 -0.78515,0.67317 -1.12695,1.06054 -0.31901,0.3646 -0.58203,0.73961 -0.78711,1.12698 -0.52409,0.45573 -0.97982,0.87825 -1.36719,1.26562 -0.36458,0.36459 -0.63802,0.71679 -0.82031,1.05859 -0.13672,0.1595 -0.26302,0.29623 -0.37695,0.41016 -0.0912,0.11394 -0.19271,0.20508 -0.30664,0.27344 -0.15951,-0.20508 -0.24024,-0.375 -0.24024,-0.51172 0,-0.11393 0.0247,-0.28581 0.0703,-0.51367 0.0456,-0.22786 0.13673,-0.48893 0.27344,-0.78516 0.1823,-0.41015 0.375,-0.84311 0.58008,-1.29883 0.82031,-2.43818 1.42318,-4.3978 1.81055,-5.87892 0.38737,-1.48112 0.58203,-2.48373 0.58203,-3.00782 0,-0.97982 -0.19466,-1.72135 -0.58203,-2.22265 -0.38737,-0.52409 -0.99024,-0.78516 -1.81055,-0.78516 -0.82031,0 -1.59505,0.1823 -2.32422,0.54688 -0.72916,0.36458 -1.41276,0.92187 -2.05078,1.67383 -0.75195,0.8431 -1.40039,1.57226 -1.94726,2.1875 -0.54688,0.59245 -1.00261,1.08333 -1.36719,1.4707 -0.8431,0.95703 -1.56185,1.77734 -2.1543,2.46094 -0.59245,0.66081 -1.09376,1.21809 -1.50391,1.67382 -0.45573,0.45573 -0.86588,0.85548 -1.23046,1.19729 -0.36459,0.3418 -0.66082,0.60287 -0.88868,0.78516 -0.20508,0.27344 -0.37499,0.51367 -0.51172,0.71875 -0.15951,0.18229 -0.2858,0.35221 -0.37695,0.51172 z m 73.82813,0 c 0.36458,0.75195 0.66081,1.37954 0.88867,1.88085 0.22786,0.5013 0.38736,0.92188 0.47851,1.26368 0.27343,-0.3418 0.52409,-0.59246 0.75196,-0.75196 0.22786,-0.1823 0.43294,-0.27343 0.61523,-0.27343 0.22787,0 0.43295,0.1263 0.61524,0.37695 0.18229,0.22787 0.37695,0.59245 0.58203,1.09375 0.25065,0.61524 0.48892,1.14974 0.71679,1.60547 0.22786,0.43294 0.45573,0.76431 0.6836,0.99219 0.43294,0.47851 0.9694,0.84309 1.60742,1.09374 0.66081,0.25066 1.41081,0.375 2.25391,0.375 0.63802,0 1.18489,-0.0456 1.64062,-0.13671 0.47852,-0.11393 0.90104,-0.28386 1.26563,-0.51172 0.88867,0 1.85807,-0.31901 2.90625,-0.95703 1.07096,-0.66081 2.25585,-1.63021 3.55468,-2.90625 -0.13672,-0.38737 -0.31901,-0.8431 -0.54687,-1.36719 -0.22786,-0.52409 -0.49089,-1.11655 -0.78711,-1.77734 -0.25065,0.20508 -0.5013,0.37695 -0.75195,0.51367 -0.25065,0.11393 -0.43295,0.20507 -0.54688,0.27343 -0.56966,0.31901 -1.22005,0.59245 -1.94922,0.82032 -0.72916,0.22786 -1.53711,0.375 -2.42578,0.44336 -0.54687,-0.11393 -1.0254,-0.23828 -1.43555,-0.375 -0.38737,-0.13672 -0.67122,-0.27344 -0.85351,-0.41016 -0.31901,-0.18229 -0.57161,-0.45573 -0.75391,-0.82031 -0.1595,-0.36458 -0.23828,-0.78711 -0.23828,-1.26563 0,-0.27343 0.058,-0.52408 0.17188,-0.75195 0.11393,-0.25065 0.25065,-0.45573 0.41015,-0.61523 1.89128,-1.84573 3.39519,-3.48635 4.51172,-4.9219 1.11654,-1.43554 1.83334,-2.69922 2.15235,-3.79297 l 0.30859,-1.09375 c 0.15951,-0.54687 0.27148,-0.94661 0.33984,-1.19726 0.0667,-0.18341 0.10907,-0.26033 0.12696,-0.23633 -0.0862,-0.51893 -0.16317,-1.00186 -0.22852,-1.4375 -0.13672,-0.52409 -0.28581,-0.9694 -0.44531,-1.33399 -0.13672,-0.36458 -0.28386,-0.63802 -0.44336,-0.82031 -0.22787,-0.27343 -0.52409,-0.46614 -0.88867,-0.58008 -0.3418,-0.11393 -0.79753,-0.17187 -1.36719,-0.17187 -0.41016,0 -0.78711,0.0352 -1.12891,0.10351 -0.34179,0.0683 -0.64843,0.14713 -0.92187,0.23828 -0.29623,0.22786 -0.59245,0.43295 -0.88867,0.61524 -0.29623,0.18229 -0.56966,0.37695 -0.82032,0.58203 l -1.57226,1.91406 c -0.52409,0.61524 -1.02539,1.1849 -1.50391,1.70899 -0.56966,0.93424 -1.03776,1.77733 -1.40234,2.52929 -0.3418,0.75195 -0.61525,1.37761 -0.82032,1.87891 -0.18229,0.5013 -0.35221,0.96939 -0.51171,1.40234 -0.13672,0.43294 -0.24024,0.80795 -0.3086,1.12696 -0.0228,0.45573 -0.0684,0.91145 -0.13672,1.36718 -0.0684,0.43294 -0.13476,0.87826 -0.20312,1.33399 -0.66081,0.52409 -1.20769,1.03583 -1.64063,1.53713 -0.43295,0.47852 -0.7871,0.95702 -1.06054,1.43555 z"
       style="font-style:normal;font-variant:normal;font-weight:normal;font-stretch:normal;font-size:70px;line-height:125%;font-family:Mistral;-inkscape-font-specification:'Mistral, Normal';text-align:start;letter-spacing:0px;word-spacing:0px;writing-mode:lr-tb;text-anchor:start;fill:#ffffff;fill-opacity:1;stroke:none;stroke-width:4.20000124;stroke-linecap:butt;stroke-linejoin:miter;stroke-miterlimit:6.19999981;stroke-dasharray:none;stroke-opacity:1"
       inkscape:connector-curvature="0" />
    <g
       style="fill:#303030;fill-opacity:1;stroke:none;stroke-width:2.90000081;stroke-miterlimit:4;stroke-dasharray:none;stroke-opacity:1"
       transform="translate(-113.18389,-423.67987)"
       inkscape:label="Layer 1"
       id="g5318">
      <path
         sodipodi:nodetypes="cscsscscssscssssscsssssssssssssssssssssssssssssssssssssssscscssssssssssssssssssssssssssssssscsccssscscscsssssscsscscscsssscscssscccccccsssssssssssssscssscssssssssssssscssscscscccssscsssscsscsssssscsssscsssssssscssccssssscsssssss"
         inkscape:connector-curvature="0"
         id="path5320"
         d="m 341.16301,515.60701 c -0.1186,-1.42329 -0.21926,-1.73549 -1.03012,-3.195 -1.56074,-2.80926 -4.60956,-9.1754 -9.92742,-26.51514 l -2.92771,-8.12047 c -0.69828,-2.05185 -3.72567,-9.86868 -6.49703,-17.4558 -4.40943,-12.07161 -16.54347,-44.14775 -16.62455,-43.00886 -0.0548,0.7703 16.88578,47.19403 21.58037,59.40327 0.80785,2.101 1.24737,3.35979 2.19077,6.30899 0.66142,1.34461 4.23602,11.83719 4.23602,11.83719 1.31968,3.68771 2.76566,7.81019 3.23717,9.15257 0.47153,1.34238 1.69951,4.71368 2.72886,7.49179 l 1.87155,5.05109 -1.66896,0.6521 c -0.91793,0.35866 -2.49269,1.01441 -3.49947,1.45722 -1.00678,0.44281 -3.16258,1.28788 -4.79066,1.87791 -3.14896,1.14122 -6.35614,4.85971 -5.6896,6.59667 0.96702,2.52004 -3.50495,2.94042 -32.28958,3.03533 -12.55287,0.0414 -22.82343,0.28119 -22.82348,0.53288 -5e-5,0.2517 0.97713,0.45763 2.17152,0.45763 1.29236,0 2.01892,0.24705 1.7945,0.61017 -0.21568,0.34898 -3.03887,0.58414 -6.59535,0.54935 -4.05538,-0.0397 -5.68766,-0.23074 -4.69282,-0.54935 0.83899,-0.26869 2.53889,-0.5159 3.77756,-0.54935 1.23867,-0.0334 2.42183,-0.3354 2.62924,-0.67099 0.58747,-0.95056 -6.25969,-0.73855 -10.39726,0.32192 -4.46713,1.14494 -6.62682,2.64552 -6.88147,4.78131 -0.287,2.4071 1.03654,8.09883 2.21629,9.5309 3.27135,3.9711 27.19541,4.85982 122.1475,4.5374 40.1035,-0.13619 75.66123,-0.40954 79.01718,-0.60748 7.78692,-0.45927 30.54521,-3.15415 32.94924,-3.90161 1.00679,-0.31302 3.5893,-0.87688 5.73893,-1.25305 7.60443,-1.3306 10.17084,-2.72203 16.74264,-9.07711 3.3316,-3.22174 6.4285,-6.73301 6.88201,-7.80282 1.28909,-3.0409 0.5171,-5.30223 -2.32866,-6.82122 -3.3441,-1.78498 -7.01702,-1.69531 -10.34547,0.25258 -1.62975,0.95377 -2.18412,1.51586 -1.43516,1.45516 2.34767,-0.19027 5.99716,0.0445 5.67649,0.36515 -0.74711,0.7471 -7.43983,1.45896 -8.15291,0.86716 -0.40481,-0.33596 -1.52339,-0.59382 -2.48574,-0.57304 -10.37423,0.22411 -49.98591,-0.74852 -50.58046,-1.24196 -0.41314,-0.34287 -0.92254,-1.50962 -1.132,-2.59277 -0.20947,-1.08315 -0.82692,-2.81119 -1.37213,-3.84008 -0.93181,-1.75848 -0.9175,-2.03752 0.2387,-4.65129 1.38456,-3.13001 1.05782,-4.28691 -1.11737,-3.9564 -1.14732,0.17433 -1.93897,1.17516 -3.50925,4.4365 -1.11523,2.31626 -2.76269,5.72156 -3.66103,7.56732 -0.94475,1.94117 -2.10261,3.4428 -2.74651,3.56197 -1.4035,0.25976 -3.33666,-1.45021 -3.58154,-3.16806 -0.11,-0.77161 -0.6975,-1.3823 -1.43081,-1.48728 -1.16821,-0.16723 -1.80337,0.75289 -3.87074,5.60731 -0.1358,0.31887 1.97115,0.36951 5.03391,0.12101 3.24869,-0.26361 5.26746,-0.20336 5.26746,0.1572 0,0.3247 -2.20192,1.05275 -5.22901,1.08519 -4.82563,0.0517 -5.71287,-0.51508 -6.03496,-1.52989 -0.23966,-0.7551 -1.16354,-1.27402 -2.70796,-1.52099 -1.28931,-0.20617 -2.66371,-0.75983 -3.05422,-1.23036 -1.74397,-2.10137 -15.00883,-3.13021 -18.97395,-1.47165 -1.28301,0.53666 -3.95929,0.87283 -6.70365,0.84205 -3.73993,-0.042 -4.60328,-0.23431 -4.76241,-1.06112 -0.12552,-0.65214 0.68212,-1.50249 2.2799,-2.4005 1.36085,-0.76484 2.50859,-1.61463 2.55054,-1.88843 0.042,-0.2738 0.14492,-0.77239 0.22882,-1.10799 0.0839,-0.33559 0.18686,-1.41061 0.22881,-2.38893 0.0665,-1.55006 0.54697,-2.00102 3.7373,-3.50751 3.81035,-1.79926 4.30926,-2.66928 2.78152,-4.85044 -0.6713,-0.95842 -1.34436,-1.18746 -2.84311,-0.96748 -1.73443,0.25455 -1.90782,0.15381 -1.48569,-0.86315 0.26285,-0.63324 0.64987,-1.86523 0.86005,-2.73777 0.22361,-0.92826 1.54406,-3.10255 4.29082,-5.66676 1.73194,-1.61681 3.08806,-1.97519 4.54486,-3.0841 2.70239,-2.05705 5.17149,-4.40375 7.75953,-6.60293 1.15251,-0.97933 3.05309,-2.43529 4.22767,-3.2306 1.17458,-0.79531 9.57936,-5.88466 12.60351,-7.62088 1.75764,-1.00909 3.51529,-2.01819 5.27294,-3.02728 2.18843,-1.25642 4.75229,-2.27988 5.18921,-2.1235 0.43692,0.15639 0.64463,0.042 0.46158,-0.25417 -0.39176,-0.63387 2.79477,-1.99481 9.65904,-4.06044 5.31041,-1.59804 11.19778,-2.55108 16.34507,-2.72086 5.95762,-0.1965 11.98657,-0.27103 17.40999,1.53024 1.03961,0.34528 2.8326,1.3094 4.39279,2.23523 2.30028,1.365 4.30522,2.71057 4.62666,2.94918 0.59389,0.44088 1.18777,0.88175 1.78166,1.32262 0.2899,0.21521 -0.74079,-1.21549 -1.54129,-1.84144 -1.89921,-1.48507 -8.12891,-4.94734 -9.10184,-5.19261 -5.55425,-1.40021 -12.12187,-1.34084 -17.37036,-1.28581 -3.96538,0.0416 -7.48423,0.45079 -11.38473,0.90092 -4.50132,0.51947 -18.63032,6.27148 -21.88475,8.05426 -1.2729,0.6973 -2.5458,1.39459 -3.8187,2.09189 -4.07958,2.23479 -14.82999,9.86062 -18.64522,12.4338 -3.05693,2.06175 -6.11386,4.12351 -9.1708,6.18525 -3.67016,2.47535 -7.35906,7.82242 -9.61453,7.8348 -1.48944,0.008 -2.83161,0.39111 -3.28479,0.93715 -0.42145,0.50783 -1.07287,0.87596 -1.4476,0.81807 -0.37472,-0.0579 -1.91691,0.46825 -3.42708,1.16919 -3.10196,1.43975 -6.63271,1.74198 -6.98516,0.59792 l 0,0 c -0.12923,-0.41949 -0.4024,-1.52567 -0.60704,-2.45819 -0.24635,-1.12258 -1.05161,-2.01954 -2.38314,-2.65449 -2.96937,-1.416 -4.69512,-4.18548 -2.51007,-4.92349 1.27373,-0.43021 1.93412,0.49711 2.26127,-3.70518 0,0 -0.18989,-2.58364 0.77993,-2.35539 0.83712,0.19702 -0.42599,-1.79077 -0.58763,-2.43477 -0.50834,-2.02538 0.29292,-2.87533 2.71057,-2.87533 l 1.87198,0 -1.78586,-1.88136 c -0.98223,-1.03475 -2.34881,-3.00637 -3.03684,-4.38138 -1.4747,-2.94714 -3.39211,-4.34582 -6.67781,-4.87122 -3.62412,-0.57952 -8.59905,2.47395 -8.6571,5.31347 -0.0112,0.5462 -0.43555,1.33772 -0.94308,1.75893 -0.70188,0.58251 -0.75703,0.96556 -0.23037,1.60014 0.50502,0.6085 0.51059,1.05337 0.0206,1.64378 -0.49047,0.59098 -0.4769,1.32585 0.0503,2.72248 0.39714,1.05215 0.53626,2.09883 0.30915,2.32594 -0.22712,0.22711 -2.38964,-0.33483 -7.38585,5.82393 -4.11287,9.86361 -5.26482,17.20061 -5.26482,23.84464 l 0,4.13466 -1.83051,0 c -1.18644,0 -1.85735,-0.32204 -1.90679,-0.91526 m 77.56803,17.65896 c 0,-0.14799 0.42807,-0.26907 0.95127,-0.26907 0.52319,0 0.77879,0.27905 0.568,0.62012 -0.34829,0.56354 -1.51927,0.29297 -1.51927,-0.35105 z m -145.65306,-1.71589 c 0.13983,-0.12457 39.79048,-1.02844 44.9748,-0.56454 4.60381,0.41196 5.11281,0.12862 8.36146,0.4202 7.65201,0.32108 35.10993,0.81054 58.02644,-0.25788 11.25153,-0.52458 46.80377,-3.97238 48.45761,-3.39584 2.16006,0.753 -37.18533,4.98674 -55.43478,5.43695 -6.82673,0.16841 -40.12351,0.35088 -52.235,-0.40305 -16.89044,2.98426 -52.53228,0.10643 -52.15053,-1.23584 z m 22.56262,-0.19637 c 0.59367,-0.1547 1.41741,-0.14453 1.83051,0.0226 0.4131,0.16714 -0.0726,0.29372 -1.07941,0.28128 -1.00678,-0.0124 -1.34478,-0.14919 -0.7511,-0.30389 z m -3.36756,0.0187 c 0.4195,-0.16927 1.10594,-0.16927 1.52543,0 0.41949,0.16927 0.0763,0.30777 -0.76271,0.30777 -0.83899,0 -1.18221,-0.1385 -0.76272,-0.30777 z m 142.62754,-3.86709 c 0.20741,-0.33559 0.65168,-0.61017 0.98727,-0.61017 0.3356,0 0.44048,0.27458 0.23307,0.61017 -0.20741,0.3356 -0.65168,0.61018 -0.98728,0.61018 -0.33559,0 -0.44047,-0.27458 -0.23306,-0.61018 z m 2.59322,-0.4041 c 0.4195,-0.16927 1.10594,-0.16927 1.52543,0 0.41949,0.16927 0.021,1.24737 -0.81798,1.24737 -0.83899,0 -1.12694,-1.0781 -0.70745,-1.24737 z m 26.97943,-0.93374 -2.60582,-2.16253 6.33501,0.77856 c 2.13856,0.26283 7.60074,-0.33473 8.80999,-0.27681 1.36355,0.0653 -0.74482,1.97047 -3.20453,2.21826 -2.18136,0.21974 -6.82205,0.44693 -6.86742,0.50485 -0.0453,0.0579 -2.27054,0.16546 -2.46723,-1.06233 z m -7.50719,-0.6068 c -0.23838,-0.62119 -0.37093,-1.73266 -3.27306,-1.89787 -3.71551,-0.21152 -3.7942,-0.89353 0.66931,-0.84313 5.05101,0.0571 6.30601,1.0303 5.5804,2.20436 -0.56581,0.91551 -2.57535,1.58241 -2.97665,0.53664 z m -19.47224,-0.90015 c 0.4195,-0.16926 1.10594,-0.16926 1.52543,0 0.41949,0.16927 0.18682,1.13683 -0.65217,1.13683 -0.83898,0 -1.29275,-0.96756 -0.87326,-1.13683 z m 3.50849,-0.81623 c 0.20741,-0.3356 -0.051,-0.61018 -0.57416,-0.61018 -0.5232,0 -2.00142,-0.30395 -2.00142,-0.67545 0,-0.3715 1.20812,-2.388 1.73896,-2.1843 0.53084,0.20371 4.47423,0.75727 4.47423,0.75727 0.3822,0.0417 -1.76499,2.01921 -2.22492,2.57338 -0.85376,1.02872 -1.99192,1.07648 -1.41269,0.13928 z m -55.67813,-15.67489 c 0.58729,-0.15348 1.0678,-0.57925 1.0678,-0.94617 0,-0.36692 0.16478,-0.50234 0.36619,-0.30095 0.60939,0.6094 -0.36916,1.67246 -1.47,1.59694 -0.93021,-0.0638 -0.92666,-0.0982 0.036,-0.34982 z M 350.6689,490.33449 c -3.39846,-9.89672 -10.14191,-36.82066 -10.47023,-38.18532 -0.63296,-2.6309 -4.25317,-14.72796 -4.44305,-14.53808 -0.11066,0.11066 1.37316,6.6518 2.21534,9.66667 1.23731,4.42937 3.76784,14.12902 3.85769,14.7867 0.0115,0.0839 -0.39103,0.15254 -0.89442,0.15254 -0.50847,0 -0.91526,0.54237 -0.91526,1.22034 0,1.47502 0.53254,1.55976 1.4987,0.23846 0.59886,-0.81899 0.84818,-0.38876 1.50279,2.59322 0.43164,1.96632 5.97664,23.92721 6.78118,26.73341 m -26.05509,-15.97758 c 0.15845,-0.25785 -0.64188,-1.56714 -1.7785,-2.90951 -1.66877,-1.97084 -2.06835,-2.20538 -2.07568,-1.21836 -0.01,1.30123 3.36811,4.91887 3.85418,4.12787 z m 18.71308,-3.51968 c 0,-0.50339 -0.10792,-0.91526 -0.2398,-0.91526 -0.1319,0 -0.39785,0.41187 -0.59103,0.91526 -0.19317,0.50339 -0.0852,0.91525 0.2398,0.91525 0.32507,0 0.59103,-0.41186 0.59103,-0.91525 z m -0.29197,-2.59323 c -0.0484,-0.58729 -0.4144,-1.66755 -0.81329,-2.40057 -0.39889,-0.73303 -0.72525,-1.81761 -0.72525,-2.41018 0,-0.72224 -0.20226,-0.87514 -0.61357,-0.46384 -0.4113,0.4113 -0.29182,1.55781 0.36245,3.47798 0.96999,2.84676 1.958,3.83861 1.78966,1.79661 z m -6.04904,-33.25434 c -0.21551,-1.09068 -0.91068,-3.7678 -1.54481,-5.94916 -0.63414,-2.18137 -2.54127,-8.77122 -4.23808,-14.64412 -4.4154,-15.28241 -5.18912,-17.69496 -5.67481,-17.69496 -0.2378,0 -0.0596,1.16695 0.39595,2.59323 0.45558,1.42627 2.66889,9.18307 4.91847,17.23733 4.74269,16.98044 5.79632,20.44074 6.22399,20.44074 0.17113,0 0.1348,-0.89237 -0.0807,-1.98306 z m -34.08948,-14.06408 c -0.34989,-3.32802 -0.62073,-3.77791 -1.96405,-3.26243 -0.86674,0.3326 -0.86623,0.58057 0.005,2.66861 1.55342,3.72084 2.31146,3.95067 1.95855,0.59382 z m 3.21004,-4.62043 c 0,-0.29256 -0.68198,-2.00866 -1.51552,-3.81357 -0.94785,-2.05244 -2.60697,-6.40282 -2.35988,-5.25797 0.72903,3.37789 3.8754,10.99337 3.8754,9.07154 z m -3.26409,-8.70291 c -0.54737,-2.2863 -4.91481,-11.94853 -5.25572,-11.60763 -0.32322,0.32322 4.45674,12.1201 5.1735,12.78318 0.25692,0.23767 0.29392,-0.29132 0.0822,-1.17555 z m -4.66813,-11.43897 c 0,-0.3356 -0.27458,-0.77987 -0.61018,-0.98728 -0.33559,-0.20741 -0.61017,-0.10253 -0.61017,0.23307 0,0.33559 0.27458,0.77986 0.61017,0.98727 0.3356,0.20741 0.61018,0.10253 0.61018,-0.23306 z"
         style="opacity:1;fill:#303030;fill-opacity:1;stroke:none;stroke-width:2.90000081;stroke-miterlimit:4;stroke-dasharray:none;stroke-opacity:1" />
    </g>
  </g>
</svg>
